<svg width="393" height="424" viewBox="0 0 393 424" fill="none" xmlns="http://www.w3.org/2000/svg">
<g clip-path="url(#clip0_507_3327)">
<path d="M137.079 335.215H132.475C131.562 335.274 130.645 335.151 129.779 334.855C128.913 334.559 128.115 334.094 127.43 333.489C126.804 332.824 126.321 332.038 126.011 331.179C125.702 330.32 125.572 329.408 125.631 328.497V315.457C125.571 314.55 125.698 313.641 126.003 312.784C126.309 311.928 126.787 311.143 127.408 310.477C128.093 309.863 128.894 309.39 129.764 309.087C130.634 308.783 131.555 308.654 132.475 308.706H137.101C138.015 308.649 138.931 308.772 139.796 309.068C140.662 309.364 141.461 309.828 142.146 310.433C142.771 311.096 143.252 311.881 143.557 312.738C143.863 313.595 143.988 314.506 143.923 315.413V328.497C143.988 329.405 143.863 330.316 143.557 331.173C143.252 332.03 142.771 332.815 142.146 333.478C141.46 334.09 140.659 334.558 139.789 334.857C138.918 335.155 137.997 335.277 137.079 335.215ZM133.281 330.696H136.218C136.553 330.765 136.9 330.75 137.228 330.653C137.555 330.555 137.854 330.378 138.096 330.137C138.338 329.896 138.516 329.599 138.614 329.272C138.712 328.946 138.727 328.6 138.657 328.267V315.71C138.73 315.376 138.717 315.029 138.62 314.701C138.523 314.374 138.345 314.075 138.102 313.833C137.859 313.592 137.56 313.415 137.231 313.318C136.901 313.221 136.553 313.208 136.218 313.28H133.281C132.951 313.246 132.617 313.277 132.299 313.371C131.981 313.466 131.684 313.622 131.426 313.83C131.012 314.365 130.819 315.038 130.886 315.71V328.267C130.818 328.936 131.012 329.605 131.426 330.136C131.682 330.348 131.978 330.507 132.297 330.604C132.615 330.7 132.95 330.732 133.281 330.696Z" fill="#FFB8DF"/>
<path d="M153.163 335.215H149.73C149.613 335.231 149.493 335.22 149.381 335.183C149.268 335.146 149.166 335.083 149.082 335.001C148.998 334.918 148.934 334.817 148.895 334.705C148.856 334.594 148.843 334.475 148.858 334.358V309.619C148.841 309.501 148.853 309.381 148.891 309.268C148.929 309.155 148.992 309.053 149.077 308.968C149.161 308.884 149.264 308.821 149.378 308.783C149.491 308.745 149.612 308.734 149.73 308.75H152.832C153.062 308.724 153.293 308.765 153.499 308.869C153.705 308.973 153.876 309.134 153.991 309.333L162.337 324.924H162.503V309.619C162.478 309.497 162.483 309.37 162.518 309.251C162.553 309.131 162.617 309.021 162.704 308.932C162.791 308.842 162.898 308.775 163.017 308.735C163.136 308.696 163.263 308.686 163.386 308.706H166.808C166.927 308.69 167.047 308.701 167.161 308.739C167.274 308.777 167.377 308.84 167.462 308.924C167.546 309.009 167.61 309.111 167.648 309.224C167.686 309.337 167.697 309.457 167.681 309.575V334.314C167.698 334.431 167.687 334.551 167.649 334.664C167.611 334.776 167.547 334.878 167.462 334.962C167.377 335.045 167.274 335.108 167.16 335.144C167.047 335.18 166.926 335.19 166.808 335.171H163.795C163.517 335.184 163.242 335.113 163.006 334.968C162.77 334.823 162.583 334.61 162.47 334.358L154.201 319.042H154.036V334.314C154.061 334.435 154.056 334.56 154.021 334.678C153.987 334.796 153.924 334.905 153.838 334.994C153.752 335.082 153.646 335.149 153.528 335.188C153.411 335.226 153.286 335.236 153.163 335.215Z" fill="#FFB8DF"/>
<path d="M187.508 335.215H173.907C173.79 335.232 173.671 335.221 173.559 335.184C173.447 335.147 173.345 335.084 173.262 335.001C173.178 334.917 173.115 334.816 173.078 334.705C173.041 334.593 173.03 334.474 173.046 334.358V309.619C173.028 309.502 173.037 309.382 173.074 309.269C173.11 309.156 173.173 309.053 173.257 308.968C173.341 308.884 173.443 308.82 173.556 308.782C173.669 308.744 173.789 308.733 173.907 308.75H177.429C177.547 308.733 177.667 308.744 177.78 308.782C177.893 308.82 177.996 308.884 178.08 308.968C178.163 309.053 178.226 309.156 178.263 309.269C178.299 309.382 178.309 309.502 178.29 309.619V330.202C178.29 330.499 178.456 330.652 178.787 330.652H187.508C188.06 330.652 188.336 330.949 188.336 331.554V334.358C188.336 334.929 188.06 335.215 187.508 335.215Z" fill="#FFB8DF"/>
<path d="M197.057 309.619V334.358C197.074 334.475 197.063 334.595 197.025 334.708C196.987 334.82 196.923 334.922 196.838 335.006C196.754 335.089 196.65 335.152 196.537 335.188C196.423 335.224 196.303 335.234 196.185 335.215H192.674C192.557 335.231 192.438 335.22 192.325 335.183C192.213 335.146 192.111 335.083 192.026 335.001C191.942 334.918 191.878 334.817 191.839 334.705C191.8 334.594 191.788 334.475 191.802 334.358V309.619C191.786 309.501 191.797 309.381 191.835 309.268C191.873 309.155 191.937 309.053 192.021 308.968C192.106 308.884 192.209 308.821 192.322 308.783C192.435 308.745 192.556 308.734 192.674 308.75H196.185C196.303 308.734 196.424 308.745 196.537 308.783C196.651 308.821 196.754 308.884 196.838 308.968C196.923 309.053 196.987 309.155 197.025 309.268C197.063 309.381 197.074 309.501 197.057 309.619Z" fill="#FFB8DF"/>
<path d="M206.938 335.215H203.505C203.387 335.231 203.268 335.22 203.155 335.183C203.043 335.146 202.941 335.083 202.856 335.001C202.772 334.918 202.708 334.817 202.669 334.705C202.63 334.594 202.618 334.475 202.632 334.358V309.619C202.616 309.501 202.627 309.381 202.665 309.268C202.703 309.155 202.767 309.053 202.851 308.968C202.936 308.884 203.039 308.821 203.152 308.783C203.266 308.745 203.386 308.734 203.505 308.75H206.607C206.827 308.735 207.047 308.782 207.242 308.885C207.437 308.988 207.6 309.143 207.711 309.333L216.057 324.924H216.222V309.619C216.206 309.501 216.217 309.381 216.255 309.268C216.293 309.155 216.357 309.053 216.441 308.968C216.526 308.884 216.629 308.821 216.742 308.783C216.855 308.745 216.976 308.734 217.094 308.75H220.517C220.635 308.734 220.756 308.745 220.869 308.783C220.982 308.821 221.085 308.884 221.17 308.968C221.254 309.053 221.318 309.155 221.356 309.268C221.394 309.381 221.405 309.501 221.389 309.619V334.358C221.406 334.475 221.395 334.595 221.357 334.708C221.319 334.82 221.255 334.922 221.17 335.006C221.085 335.089 220.982 335.152 220.868 335.188C220.755 335.224 220.634 335.234 220.517 335.215H217.503C217.225 335.228 216.951 335.157 216.714 335.012C216.478 334.867 216.291 334.654 216.178 334.402L207.909 319.086H207.744V334.358C207.759 334.469 207.749 334.582 207.714 334.69C207.68 334.797 207.622 334.895 207.545 334.977C207.468 335.059 207.373 335.123 207.268 335.164C207.163 335.205 207.05 335.223 206.938 335.215Z" fill="#FFB8DF"/>
<path d="M241.205 335.215H227.682C227.565 335.232 227.446 335.221 227.334 335.184C227.222 335.147 227.12 335.084 227.036 335.001C226.953 334.917 226.89 334.816 226.852 334.705C226.815 334.593 226.804 334.474 226.821 334.358V309.619C226.802 309.502 226.812 309.382 226.848 309.269C226.885 309.156 226.947 309.053 227.031 308.968C227.115 308.884 227.217 308.82 227.33 308.782C227.443 308.744 227.564 308.733 227.682 308.75H241.205C241.757 308.75 242.033 309.036 242.033 309.619V312.412C242.033 312.994 241.757 313.28 241.205 313.28H232.561C232.23 313.28 232.065 313.434 232.065 313.731V319.086C232.065 319.383 232.23 319.537 232.561 319.537H239.627C239.745 319.52 239.866 319.531 239.979 319.569C240.092 319.607 240.195 319.67 240.28 319.755C240.364 319.839 240.428 319.941 240.466 320.054C240.504 320.167 240.515 320.287 240.499 320.405V323.198C240.515 323.316 240.504 323.436 240.466 323.549C240.428 323.662 240.364 323.764 240.28 323.848C240.195 323.933 240.092 323.996 239.979 324.034C239.866 324.072 239.745 324.083 239.627 324.066H232.561C232.23 324.066 232.065 324.22 232.065 324.517V330.235C232.065 330.542 232.23 330.696 232.561 330.696H241.205C241.757 330.696 242.033 330.982 242.033 331.554V334.358C242.033 334.929 241.757 335.215 241.205 335.215Z" fill="#FFB8DF"/>
<path d="M266.541 335.215H261.121C260.869 335.237 260.62 335.159 260.425 334.998C260.231 334.838 260.108 334.608 260.083 334.358L253.68 309.696C253.492 309.069 253.768 308.75 254.508 308.75H258.394C258.641 308.735 258.884 308.818 259.07 308.981C259.257 309.144 259.371 309.373 259.388 309.619L263.726 329.872H263.848L268.263 309.619C268.28 309.373 268.394 309.144 268.581 308.981C268.767 308.818 269.01 308.735 269.257 308.75H273.143C273.827 308.75 274.103 309.069 273.971 309.696L267.557 334.358C267.532 334.604 267.412 334.83 267.222 334.99C267.033 335.15 266.789 335.231 266.541 335.215Z" fill="#8499FF"/>
<path d="M288.278 335.215H283.652C282.739 335.276 281.822 335.154 280.956 334.858C280.089 334.561 279.291 334.096 278.607 333.489C277.986 332.823 277.508 332.038 277.202 331.182C276.897 330.325 276.77 329.415 276.83 328.508V315.457C276.77 314.55 276.897 313.641 277.202 312.784C277.508 311.928 277.986 311.143 278.607 310.477C279.292 309.872 280.091 309.408 280.957 309.112C281.823 308.816 282.739 308.693 283.652 308.75H288.278C290.123 308.638 291.937 309.258 293.323 310.477C293.944 311.143 294.422 311.928 294.728 312.784C295.034 313.641 295.16 314.55 295.1 315.457V328.497C295.16 329.404 295.034 330.314 294.728 331.171C294.422 332.027 293.944 332.812 293.323 333.478C292.639 334.085 291.841 334.552 290.975 334.85C290.109 335.148 289.192 335.272 288.278 335.215ZM284.469 330.696H287.406C287.741 330.768 288.09 330.756 288.419 330.659C288.748 330.562 289.048 330.385 289.29 330.143C289.533 329.902 289.711 329.603 289.808 329.275C289.905 328.948 289.918 328.601 289.846 328.267V315.71C289.921 315.376 289.91 315.028 289.814 314.698C289.718 314.369 289.54 314.069 289.297 313.827C289.054 313.584 288.753 313.407 288.422 313.312C288.091 313.216 287.742 313.205 287.406 313.28H284.469C283.803 313.214 283.136 313.411 282.615 313.83C282.205 314.368 282.012 315.038 282.074 315.71V328.267C282.012 328.935 282.205 329.602 282.615 330.136C282.871 330.347 283.167 330.506 283.485 330.602C283.804 330.698 284.138 330.73 284.469 330.696Z" fill="#8499FF"/>
<path d="M308.282 335.215H304.815C304.208 335.215 303.899 334.929 303.899 334.358V313.731C303.906 313.67 303.899 313.609 303.879 313.551C303.859 313.493 303.826 313.44 303.782 313.397C303.739 313.353 303.686 313.32 303.628 313.3C303.57 313.28 303.508 313.273 303.447 313.28H298.733C298.615 313.297 298.494 313.286 298.381 313.249C298.268 313.211 298.166 313.147 298.082 313.062C297.998 312.978 297.936 312.875 297.899 312.762C297.862 312.649 297.853 312.529 297.872 312.412V309.619C297.853 309.502 297.862 309.382 297.899 309.269C297.936 309.156 297.998 309.053 298.082 308.968C298.166 308.884 298.268 308.82 298.381 308.782C298.494 308.744 298.615 308.733 298.733 308.75H314.354C314.472 308.734 314.593 308.745 314.706 308.783C314.819 308.821 314.922 308.884 315.007 308.968C315.091 309.053 315.155 309.155 315.193 309.268C315.231 309.381 315.242 309.501 315.226 309.619V312.412C315.242 312.53 315.231 312.65 315.193 312.763C315.155 312.876 315.091 312.978 315.007 313.062C314.922 313.147 314.819 313.21 314.706 313.248C314.593 313.286 314.472 313.297 314.354 313.28H309.651C309.32 313.28 309.154 313.434 309.154 313.731V334.358C309.169 334.475 309.156 334.594 309.117 334.705C309.078 334.817 309.014 334.918 308.93 335.001C308.846 335.083 308.744 335.146 308.631 335.183C308.519 335.22 308.399 335.231 308.282 335.215Z" fill="#8499FF"/>
<path d="M323.826 309.619V334.358C323.843 334.475 323.832 334.595 323.794 334.708C323.756 334.82 323.692 334.922 323.607 335.006C323.522 335.089 323.419 335.152 323.305 335.188C323.192 335.224 323.071 335.234 322.954 335.215H319.443C319.326 335.231 319.206 335.22 319.094 335.183C318.981 335.146 318.879 335.083 318.795 335.001C318.711 334.918 318.646 334.817 318.608 334.705C318.569 334.594 318.556 334.475 318.571 334.358V309.619C318.554 309.501 318.566 309.381 318.604 309.268C318.642 309.155 318.705 309.053 318.79 308.968C318.874 308.884 318.977 308.821 319.091 308.783C319.204 308.745 319.325 308.734 319.443 308.75H322.954C323.072 308.734 323.193 308.745 323.306 308.783C323.419 308.821 323.522 308.884 323.607 308.968C323.691 309.053 323.755 309.155 323.793 309.268C323.831 309.381 323.842 309.501 323.826 309.619Z" fill="#8499FF"/>
<path d="M333.706 335.215H330.272C330.155 335.234 330.034 335.224 329.921 335.188C329.807 335.152 329.704 335.089 329.619 335.006C329.534 334.922 329.47 334.82 329.432 334.708C329.394 334.595 329.383 334.475 329.4 334.358V309.619C329.384 309.501 329.395 309.381 329.433 309.268C329.471 309.155 329.535 309.053 329.619 308.968C329.704 308.884 329.807 308.821 329.92 308.783C330.033 308.745 330.154 308.734 330.272 308.75H333.397C333.618 308.725 333.842 308.767 334.039 308.871C334.236 308.975 334.397 309.136 334.501 309.333L342.858 324.924H343.023V309.619C343.005 309.502 343.014 309.382 343.051 309.269C343.087 309.156 343.15 309.053 343.234 308.968C343.317 308.884 343.42 308.82 343.533 308.782C343.646 308.744 343.766 308.733 343.884 308.75H347.318C347.436 308.734 347.557 308.745 347.67 308.783C347.783 308.821 347.886 308.884 347.971 308.968C348.055 309.053 348.119 309.155 348.157 309.268C348.195 309.381 348.206 309.501 348.19 309.619V334.358C348.207 334.475 348.196 334.595 348.158 334.708C348.12 334.82 348.056 334.922 347.971 335.006C347.886 335.089 347.783 335.152 347.669 335.188C347.556 335.224 347.435 335.234 347.318 335.215H344.326C344.049 335.228 343.774 335.157 343.537 335.012C343.301 334.867 343.114 334.654 343.001 334.402L334.732 319.086H334.567V334.358C334.583 334.474 334.573 334.593 334.535 334.705C334.498 334.816 334.435 334.917 334.351 335.001C334.268 335.084 334.166 335.147 334.054 335.184C333.942 335.221 333.823 335.232 333.706 335.215Z" fill="#8499FF"/>
<path d="M364.374 335.215H359.958C359.044 335.275 358.128 335.153 357.261 334.857C356.395 334.56 355.597 334.095 354.913 333.489C354.292 332.823 353.814 332.038 353.508 331.182C353.202 330.325 353.076 329.415 353.136 328.508V315.457C353.076 314.55 353.202 313.641 353.508 312.784C353.814 311.928 354.292 311.143 354.913 310.477C355.598 309.872 356.397 309.409 357.263 309.113C358.128 308.816 359.044 308.693 359.958 308.75H364.374C365.282 308.695 366.193 308.822 367.051 309.122C367.91 309.422 368.7 309.89 369.375 310.499C369.993 311.162 370.469 311.944 370.774 312.796C371.08 313.649 371.208 314.554 371.152 315.457V316.7C371.172 316.82 371.164 316.943 371.127 317.059C371.091 317.175 371.028 317.281 370.943 317.369C370.859 317.456 370.755 317.523 370.639 317.563C370.524 317.604 370.401 317.617 370.28 317.601H366.77C366.184 317.601 365.897 317.305 365.897 316.7V315.71C365.962 315.04 365.773 314.369 365.367 313.83C364.841 313.412 364.172 313.214 363.502 313.28H360.819C360.156 313.219 359.495 313.416 358.976 313.83C358.552 314.361 358.354 315.036 358.424 315.71V328.267C358.354 328.938 358.553 329.609 358.976 330.136C359.492 330.558 360.154 330.759 360.819 330.696H363.502C363.835 330.731 364.171 330.699 364.491 330.602C364.811 330.506 365.109 330.347 365.367 330.136C365.773 329.601 365.962 328.934 365.897 328.267V325.672C365.913 325.605 365.911 325.536 365.892 325.471C365.872 325.406 365.837 325.347 365.788 325.299C365.739 325.252 365.679 325.218 365.613 325.2C365.547 325.182 365.478 325.182 365.412 325.199H362.928C362.81 325.214 362.691 325.201 362.579 325.162C362.467 325.124 362.365 325.06 362.282 324.976C362.199 324.892 362.136 324.79 362.099 324.678C362.062 324.566 362.05 324.447 362.067 324.33V321.527C362.05 321.41 362.061 321.291 362.098 321.18C362.136 321.068 362.199 320.967 362.282 320.884C362.366 320.8 362.467 320.738 362.58 320.701C362.692 320.663 362.811 320.652 362.928 320.669H370.17C370.299 320.651 370.43 320.662 370.554 320.703C370.677 320.744 370.79 320.814 370.882 320.905C370.974 320.997 371.043 321.109 371.085 321.232C371.126 321.355 371.138 321.486 371.119 321.615V328.497C371.177 329.401 371.049 330.307 370.743 331.159C370.437 332.012 369.961 332.793 369.342 333.456C368.672 334.062 367.888 334.53 367.035 334.832C366.182 335.134 365.278 335.264 364.374 335.215Z" fill="#8499FF"/>
<path d="M350.646 245.856C407.119 189.611 407.119 98.4203 350.646 42.1756C294.173 -14.069 202.612 -14.069 146.139 42.1756C89.6662 98.4203 89.6662 189.611 146.139 245.856C202.612 302.1 294.173 302.1 350.646 245.856Z" fill="#8499FF"/>
<g opacity="0.8">
<g style="mix-blend-mode:multiply" opacity="0.02">
<path d="M128.943 198.592L273.087 115.788C280.749 111.39 293.234 111.39 300.951 115.788L376.517 159.251C384.245 163.649 384.245 170.895 376.606 175.326L232.461 258.129C224.789 262.527 212.314 262.527 204.597 258.129L129.031 214.666C121.325 210.224 121.27 203.034 128.943 198.592Z" fill="#FBFCFC"/>
</g>
<g style="mix-blend-mode:multiply" opacity="0.04">
<path d="M129.417 198.493L273.021 116.03C280.66 111.632 293.102 111.632 300.785 116.03L375.943 159.273C383.671 163.671 383.671 170.873 376.032 175.293L232.428 257.756C224.789 262.154 212.358 262.154 204.663 257.756L129.505 214.523C121.822 210.092 121.767 202.913 129.417 198.493Z" fill="#F7F8FA"/>
</g>
<g style="mix-blend-mode:multiply" opacity="0.06">
<path d="M129.892 198.394L272.954 116.206C280.572 111.808 292.969 111.808 300.631 116.206L375.347 159.175C383.008 163.573 383.075 170.73 375.435 175.139L232.406 257.36C224.777 261.758 212.391 261.758 204.729 257.36L129.98 214.369C122.318 209.949 122.274 202.803 129.892 198.394Z" fill="#F3F5F7"/>
</g>
<g style="mix-blend-mode:multiply" opacity="0.08">
<path d="M130.367 198.284L272.9 116.415C280.484 112.017 292.837 112.017 300.499 116.415L374.818 159.174C382.446 163.572 382.545 170.697 374.895 175.084L232.373 256.964C224.778 261.362 212.436 261.362 204.774 256.964L130.455 214.149C122.827 209.806 122.772 202.682 130.367 198.284Z" fill="#EFF2F4"/>
</g>
<g style="mix-blend-mode:multiply" opacity="0.1">
<path d="M130.842 198.185L272.834 116.613C280.396 112.215 292.705 112.215 300.311 116.613L374.244 159.175C381.85 163.573 381.894 170.653 374.332 175.029L232.34 256.568C224.767 260.966 212.469 260.966 204.863 256.568L130.897 214.04C123.324 209.664 123.269 202.572 130.842 198.185Z" fill="#EAEEF2"/>
</g>
<g style="mix-blend-mode:multiply" opacity="0.12">
<path d="M131.371 198.086L272.833 116.822C280.362 112.424 292.627 112.424 300.212 116.822L373.68 159.175C381.264 163.573 381.298 170.609 373.769 174.974L232.307 256.183C224.767 260.581 212.513 260.581 204.928 256.183L131.371 213.886C123.82 209.521 123.776 202.451 131.371 198.086Z" fill="#E6EBEF"/>
</g>
<g style="mix-blend-mode:multiply" opacity="0.14">
<path d="M131.791 197.987L272.679 117.031C280.185 112.688 292.406 112.688 299.969 117.031L373.139 159.098C380.69 163.441 380.723 170.488 373.217 174.831L232.273 255.788C224.755 260.186 212.546 260.131 204.995 255.788L131.879 213.721C124.317 209.378 124.273 202.33 131.791 197.987Z" fill="#E2E8EC"/>
</g>
<g style="mix-blend-mode:multiply" opacity="0.16">
<path d="M132.266 197.888L272.679 117.24C280.153 112.908 292.329 112.908 299.858 117.24L372.565 159.021C380.094 163.353 380.128 170.378 372.654 174.71L232.241 255.403C224.756 259.735 212.579 259.724 205.061 255.403L132.354 213.622C124.825 209.235 124.748 202.22 132.266 197.888Z" fill="#DEE4EA"/>
</g>
<g style="mix-blend-mode:multiply" opacity="0.18">
<path d="M132.74 197.778L272.59 117.449C280.042 113.127 292.174 113.138 299.681 117.449L372.035 159.043C379.531 163.353 379.575 170.356 372.123 174.666L232.207 255.007C224.744 259.328 212.623 259.317 205.127 255.007L132.817 213.424C125.321 209.092 125.277 202.055 132.74 197.778Z" fill="#DAE1E7"/>
</g>
<g style="mix-blend-mode:multiply" opacity="0.2">
<path d="M133.215 197.657L272.524 117.624C279.954 113.336 292.042 113.336 299.527 117.624L371.417 158.977C378.88 163.276 378.924 170.246 371.494 174.545L232.174 254.611C224.745 258.921 212.656 258.91 205.182 254.611L133.292 213.259C125.851 208.96 125.774 201.989 133.215 197.657Z" fill="#D6DDE4"/>
</g>
<g style="mix-blend-mode:multiply" opacity="0.22">
<path d="M133.69 197.58L272.469 117.855C279.866 113.578 291.921 113.578 299.362 117.855L370.843 158.977C378.295 163.265 378.328 170.213 370.932 174.502L232.152 254.226C224.734 258.503 212.701 258.503 205.249 254.226L133.767 213.05C126.327 208.817 126.271 201.868 133.69 197.58Z" fill="#D2DAE2"/>
</g>
<g style="mix-blend-mode:multiply" opacity="0.24">
<path d="M134.154 197.481L272.403 118.064C279.778 113.798 291.789 113.798 299.207 118.064L370.281 158.955C377.699 163.221 377.732 170.148 370.369 174.414L232.119 253.83C224.734 258.096 212.734 258.096 205.315 253.83L134.242 212.94C126.823 208.652 126.779 201.747 134.154 197.481Z" fill="#CED7DF"/>
</g>
<g style="mix-blend-mode:multiply" opacity="0.25">
<path d="M134.683 197.382L272.347 118.273C279.689 114.018 291.655 114.018 299.041 118.273L369.695 158.955C377.08 163.21 377.124 170.115 369.772 174.348L232.064 253.512C224.711 257.767 212.755 257.767 205.359 253.512L134.705 212.83C127.319 208.531 127.275 201.637 134.683 197.382Z" fill="#C9D3DC"/>
</g>
<g style="mix-blend-mode:multiply" opacity="0.27">
<path d="M135.103 197.283L272.281 118.493C279.601 114.26 291.523 114.26 298.887 118.493L369.143 158.911C376.507 163.144 376.551 170.016 369.231 174.304L232.053 253.05C224.723 257.283 212.811 257.283 205.447 253.05L135.191 212.643C127.828 208.388 127.773 201.516 135.103 197.283Z" fill="#C5D0DA"/>
</g>
<g style="mix-blend-mode:multiply" opacity="0.29">
<path d="M135.578 197.173L272.226 118.68C279.513 114.458 291.391 114.469 298.722 118.68L368.569 158.856C375.911 163.078 375.944 169.928 368.647 174.15L232.02 252.632C224.723 256.854 212.855 256.854 205.525 252.632L135.677 212.445C128.325 208.245 128.281 201.406 135.578 197.173Z" fill="#C1CDD7"/>
</g>
<g style="mix-blend-mode:multiply" opacity="0.31">
<path d="M136.052 197.074L272.16 118.889C279.424 114.689 291.258 114.689 298.566 118.889L368.017 158.834C375.325 163.045 375.358 169.829 368.094 174.073L231.986 252.258C224.711 256.469 212.888 256.469 205.58 252.258L136.14 212.313C128.821 208.102 128.777 201.285 136.052 197.074Z" fill="#BDC9D4"/>
</g>
<g style="mix-blend-mode:multiply" opacity="0.33">
<path d="M136.527 196.975L272.093 119.098C279.335 114.909 291.126 114.909 298.412 119.098L367.443 158.812C374.729 163.001 374.773 169.807 367.531 173.996L231.953 251.873C224.711 256.062 212.932 256.062 205.646 251.873L136.604 212.17C129.329 207.97 129.274 201.164 136.527 196.975Z" fill="#B9C6D2"/>
</g>
<g style="mix-blend-mode:multiply" opacity="0.35">
<path d="M137.001 196.876L272.038 119.296C279.247 115.129 290.993 115.129 298.257 119.296L366.879 158.768C374.132 162.946 374.177 169.763 366.957 173.897L231.92 251.533C224.7 255.711 212.965 255.7 205.712 251.533L137.078 211.951C129.825 207.827 129.781 201.054 137.001 196.876Z" fill="#B5C3CF"/>
</g>
<g style="mix-blend-mode:multiply" opacity="0.37">
<path d="M137.476 196.777L271.972 119.505C279.159 115.348 290.861 115.348 298.092 119.505L366.317 158.746C373.548 162.902 373.581 169.653 366.394 173.809L231.898 251.093C224.7 255.249 213.009 255.238 205.767 251.093L137.553 211.84C130.322 207.684 130.267 200.955 137.476 196.777Z" fill="#B1BFCC"/>
</g>
<g style="mix-blend-mode:multiply" opacity="0.39">
<path d="M137.995 196.667L271.961 119.702C279.115 115.557 290.728 115.557 297.982 119.702L365.787 158.713C372.996 162.858 373.029 169.587 365.875 173.732L231.832 250.697C224.656 254.842 213.009 254.831 205.801 250.697L137.995 211.687C130.819 207.552 130.775 200.824 137.995 196.667Z" fill="#ADBCCA"/>
</g>
<g style="mix-blend-mode:multiply" opacity="0.41">
<path d="M138.426 196.558L271.851 119.922C278.982 115.788 290.618 115.799 297.783 119.922L365.18 158.691C372.356 162.825 372.389 169.521 365.257 173.655L231.832 250.301C224.689 254.435 213.065 254.424 205.9 250.301L138.558 211.533C131.371 207.399 131.283 200.703 138.426 196.558Z" fill="#A9B9C7"/>
</g>
<g style="mix-blend-mode:multiply" opacity="0.43">
<path d="M138.889 196.47L271.796 120.131C278.894 116.019 290.464 116.019 297.617 120.131L364.617 158.614C371.76 162.726 371.804 169.4 364.694 173.512L231.832 249.916C224.712 254.028 213.153 254.017 205.999 249.916L139.011 211.434C131.824 207.256 131.78 200.582 138.889 196.47Z" fill="#A4B5C4"/>
</g>
<g style="mix-blend-mode:multiply" opacity="0.45">
<path d="M139.364 196.371L271.73 120.329C278.806 116.239 290.342 116.239 297.463 120.329L364.043 158.625C371.175 162.726 371.208 169.378 364.131 173.479L231.766 249.509C224.679 253.611 213.153 253.6 206.033 249.509L139.453 211.203C132.321 207.113 132.277 200.472 139.364 196.371Z" fill="#A0B2C2"/>
</g>
<g style="mix-blend-mode:multiply" opacity="0.47">
<path d="M139.838 196.272L271.663 120.538C278.717 116.459 290.209 116.459 297.308 120.538L363.479 158.614C370.578 162.693 370.611 169.323 363.557 173.402L231.732 249.125C224.667 253.215 213.197 253.204 206.098 249.125L139.927 211.06C132.828 206.97 132.784 200.351 139.838 196.272Z" fill="#9CAFBF"/>
</g>
<g style="mix-blend-mode:multiply" opacity="0.49">
<path d="M140.313 196.162L271.575 120.747C278.596 116.679 290.044 116.679 297.109 120.747L362.883 158.581C369.949 162.649 369.982 169.246 362.961 173.314L231.666 248.74C224.634 252.808 213.197 252.797 206.132 248.74L140.368 210.917C133.325 206.838 133.281 200.241 140.313 196.162Z" fill="#98ABBC"/>
</g>
<g style="mix-blend-mode:multiply" opacity="0.51">
<path d="M140.788 196.063L271.575 120.956C278.574 116.899 289.978 116.91 296.966 120.956L362.321 158.559C369.364 162.605 369.408 169.18 362.409 173.237L231.666 248.344C224.667 252.401 213.274 252.39 206.275 248.344L140.865 210.741C133.822 206.695 133.778 200.12 140.788 196.063Z" fill="#94A8BA"/>
</g>
<g style="mix-blend-mode:multiply" opacity="0.53">
<path d="M141.307 195.964L271.575 121.198C278.541 117.174 289.9 117.174 296.966 121.198L361.912 158.581C368.933 162.616 368.966 169.169 361.989 173.204L231.721 247.97C224.744 252.016 213.396 252.005 206.386 247.97L141.428 210.587C134.33 206.552 134.275 199.999 141.307 195.964Z" fill="#90A4B7"/>
</g>
<g style="mix-blend-mode:multiply" opacity="0.55">
<path d="M141.738 195.865L271.421 121.363C278.365 117.35 289.68 117.35 296.668 121.363L361.217 158.482C368.205 162.506 368.238 169.037 361.294 173.05L231.612 247.563C224.657 251.587 213.352 251.576 206.364 247.563L141.815 210.444C134.827 206.453 134.783 199.856 141.738 195.865Z" fill="#8CA1B4"/>
</g>
<g style="mix-blend-mode:multiply" opacity="0.57">
<path d="M142.213 195.766L271.376 121.572C278.287 117.569 289.559 117.569 296.525 121.572L360.654 158.471C367.62 162.473 367.653 168.971 360.731 172.984L231.578 247.134C224.646 251.148 213.385 251.137 206.419 247.134L142.29 210.235C135.324 206.266 135.28 199.768 142.213 195.766Z" fill="#889EB2"/>
</g>
<g style="mix-blend-mode:multiply" opacity="0.59">
<path d="M142.687 195.656L271.298 121.792C278.187 117.8 289.415 117.8 296.358 121.792L360.079 158.449C367.012 162.44 367.045 168.916 360.156 172.907L231.545 246.794C224.645 250.785 213.429 250.774 206.485 246.794L142.764 210.136C135.787 206.123 135.787 199.658 142.687 195.656Z" fill="#839AAF"/>
</g>
<g style="mix-blend-mode:multiply" opacity="0.61">
<path d="M143.162 195.557L271.222 121.989C278.088 118.009 289.272 118.009 296.182 121.989L359.506 158.416C366.417 162.385 366.45 168.839 359.583 172.808L231.523 246.387C224.646 250.367 213.473 250.356 206.563 246.387L143.25 209.971C136.329 205.98 136.284 199.537 143.162 195.557Z" fill="#7F97AC"/>
</g>
<g style="mix-blend-mode:multiply" opacity="0.63">
<path d="M143.636 195.458L271.177 122.187C278.01 118.229 289.149 118.24 296.038 122.187L358.964 158.372C365.853 162.33 365.886 168.762 359.041 172.72L231.478 246.035C224.634 250.004 213.506 249.993 206.617 246.035L143.691 209.85C136.824 205.837 136.78 199.416 143.636 195.458Z" fill="#7B94AA"/>
</g>
<g style="mix-blend-mode:multiply" opacity="0.65">
<path d="M144.1 195.359L271.111 122.396C277.923 118.46 289.017 118.46 295.884 122.396L358.38 158.35C365.235 162.297 365.268 168.696 358.457 172.643L231.501 245.606C224.678 249.553 213.595 249.542 206.739 245.606L144.244 209.653C137.322 205.705 137.278 199.306 144.1 195.359Z" fill="#7790A7"/>
</g>
<g style="mix-blend-mode:multiply" opacity="0.67">
<path d="M144.619 195.26L271.1 122.605C277.879 118.68 288.929 118.68 295.763 122.605L357.861 158.328C364.683 162.253 364.717 168.63 357.938 172.555L231.413 245.21C224.624 249.147 213.584 249.136 206.75 245.21L144.619 209.488C137.83 205.562 137.786 199.185 144.619 195.26Z" fill="#738DA4"/>
</g>
<g style="mix-blend-mode:multiply" opacity="0.69">
<path d="M145.049 195.15L270.99 122.814C277.746 118.9 288.763 118.9 295.564 122.814L357.242 158.295C364.043 162.209 364.087 168.564 357.319 172.478L231.379 244.815C224.612 248.74 213.617 248.729 206.816 244.815L145.127 209.334C138.326 205.419 138.282 199.075 145.049 195.15Z" fill="#6F8AA2"/>
</g>
<g style="mix-blend-mode:multiply" opacity="0.71">
<path d="M145.524 195.051L270.934 123.012C277.657 119.12 288.598 119.12 295.409 123.012L356.679 158.262C363.457 162.154 363.491 168.476 356.756 172.38L231.357 244.43C224.612 248.333 213.694 248.322 206.882 244.43L145.601 209.18C138.823 205.277 138.779 198.954 145.524 195.051Z" fill="#6B869F"/>
</g>
<g style="mix-blend-mode:multiply" opacity="0.73">
<path d="M145.999 194.952L270.868 123.221C277.57 119.34 288.532 119.34 295.244 123.221L356.117 158.24C362.862 162.121 362.895 168.421 356.194 172.303L231.325 244.034C224.601 247.926 213.661 247.915 206.949 244.034L146.076 209.015C139.331 205.134 139.287 198.833 145.999 194.952Z" fill="#67839C"/>
</g>
<g style="mix-blend-mode:multiply" opacity="0.75">
<path d="M146.474 194.853L270.802 123.386C277.426 119.516 288.366 119.527 295.089 123.386L355.542 158.163C362.266 162.033 362.299 168.311 355.62 172.171L231.291 243.638C224.601 247.508 213.727 247.508 207.004 243.638L146.551 208.861C139.828 204.991 139.784 198.757 146.474 194.853Z" fill="#63809A"/>
</g>
<g style="mix-blend-mode:multiply" opacity="0.76">
<path d="M146.948 194.754L270.747 123.639C277.371 119.79 288.234 119.79 294.935 123.639L354.979 158.185C361.669 162.033 361.714 168.289 355.057 172.138L231.258 243.253C224.634 247.101 213.771 247.101 207.07 243.253L147.026 208.718C140.325 204.848 140.281 198.603 146.948 194.754Z" fill="#5E7C97"/>
</g>
<g style="mix-blend-mode:multiply" opacity="0.78">
<path d="M147.423 194.655L270.681 123.837C277.304 120.01 288.101 120.01 294.769 123.837L354.383 158.141C361.007 161.978 361.084 168.201 354.449 172.039L231.192 242.846C224.568 246.684 213.771 246.684 207.103 242.846L147.489 208.531C140.832 204.705 140.788 198.493 147.423 194.655Z" fill="#5A7994"/>
</g>
<g style="mix-blend-mode:multiply" opacity="0.8">
<path d="M147.931 194.545L270.659 124.046C277.283 120.23 288.002 120.23 294.648 124.046L353.875 158.13C360.499 161.945 360.554 168.146 353.953 171.962L231.192 242.473C224.568 246.288 213.849 246.288 207.203 242.473L147.975 208.388C141.307 204.573 141.307 198.372 147.931 194.545Z" fill="#567692"/>
</g>
<g style="mix-blend-mode:multiply" opacity="0.82">
<path d="M148.372 194.446L270.559 124.254C277.183 120.45 287.836 120.45 294.449 124.254L353.268 158.075C359.892 161.879 359.892 168.058 353.345 171.863L231.159 242.077C224.535 245.881 213.882 245.881 207.269 242.077L148.439 208.234C141.826 204.43 141.782 198.262 148.372 194.446Z" fill="#52728F"/>
</g>
<g style="mix-blend-mode:multiply" opacity="0.84">
<path d="M148.848 194.358L270.471 124.463C277.018 120.67 287.671 120.67 294.262 124.463L352.716 158.075C359.34 161.868 359.34 167.971 352.783 171.808L231.126 241.637C224.579 245.43 213.926 245.43 207.335 241.637L148.914 208.036C142.334 204.254 142.29 198.141 148.848 194.358Z" fill="#4E6F8C"/>
</g>
<g style="mix-blend-mode:multiply" opacity="0.86">
<path d="M149.311 194.249L270.471 124.672C276.995 120.89 287.604 120.901 294.173 124.672L352.164 158.075C358.732 161.846 358.788 167.97 352.241 171.742L231.103 241.296C224.568 245.067 213.959 245.067 207.401 241.296L149.388 207.926C142.83 204.144 142.786 198.02 149.311 194.249Z" fill="#4A6B8A"/>
</g>
<g style="mix-blend-mode:multiply" opacity="0.88">
<path d="M149.785 194.15L270.371 124.881C276.874 121.132 287.438 121.132 293.974 124.881L351.579 158.009C358.114 161.769 358.147 167.905 351.656 171.632L231.07 240.9C224.568 244.661 214.003 244.661 207.467 240.9L149.862 207.761C143.327 204.001 143.283 197.91 149.785 194.15Z" fill="#466887"/>
</g>
<g style="mix-blend-mode:multiply" opacity="0.9">
<path d="M150.261 194.04L270.317 125.09C276.786 121.352 287.307 121.352 293.82 125.09L351.061 157.987C357.563 161.725 357.596 167.806 351.127 171.544L231.038 240.537C224.557 244.287 214.037 244.287 207.534 240.537L150.338 207.64C143.824 203.858 143.791 197.789 150.261 194.04Z" fill="#426584"/>
</g>
<g style="mix-blend-mode:multiply" opacity="0.92">
<path d="M150.735 193.941L270.25 125.288C276.697 121.561 287.185 121.561 293.665 125.288L350.442 157.954C356.922 161.681 356.955 167.74 350.519 171.456L231.004 240.12C224.557 243.847 214.08 243.836 207.589 240.12L150.812 207.443C144.332 203.715 144.288 197.657 150.735 193.941Z" fill="#3D6182"/>
</g>
<g style="mix-blend-mode:multiply" opacity="0.94">
<path d="M151.243 193.842L270.228 125.497C276.642 121.781 287.086 121.781 293.533 125.497L349.912 157.932C356.371 161.637 356.404 167.663 349.99 171.379L230.971 239.724C224.546 243.44 214.114 243.429 207.656 239.724L151.243 207.289C144.829 203.583 144.785 197.558 151.243 193.842Z" fill="#395E7F"/>
</g>
<g style="mix-blend-mode:multiply" opacity="0.96">
<path d="M151.684 193.743L270.128 125.695C276.52 122 286.919 122.011 293.311 125.695L349.282 157.888C355.707 161.582 355.741 167.586 349.349 171.28L230.937 239.339C224.546 243.033 214.146 243.022 207.754 239.339L151.794 207.146C145.325 203.44 145.292 197.437 151.684 193.743Z" fill="#355B7C"/>
</g>
<g style="mix-blend-mode:multiply" opacity="0.98">
<path d="M152.159 193.644L270.073 125.904C276.432 122.231 286.787 122.231 293.19 125.904L348.742 157.866C355.145 161.549 355.178 167.531 348.819 171.203L230.905 238.943C224.535 242.627 214.191 242.616 207.788 238.943L152.225 206.992C145.833 203.297 145.789 197.327 152.159 193.644Z" fill="#31577A"/>
</g>
<g style="mix-blend-mode:multiply">
<path d="M152.633 193.534L270.007 126.113C276.343 122.451 286.654 122.451 293.024 126.113L348.222 157.844C354.592 161.505 354.625 167.454 348.3 171.126L230.871 238.547C224.534 242.22 214.223 242.209 207.853 238.547L152.655 206.816C146.33 203.155 146.285 197.206 152.633 193.534Z" fill="#2D5477"/>
</g>
</g>
<path d="M139.949 185.398L365.721 146.75V153.105C365.721 155.755 363.966 158.394 360.477 160.417L231.832 234.292C224.789 238.36 213.352 238.36 206.276 234.292L145.237 199.185C141.683 197.129 139.905 194.446 139.905 191.764L139.949 185.398Z" fill="url(#paint0_linear_507_3327)"/>
<path d="M147.037 193.259L205.945 227.014C210.756 229.716 216.328 230.763 221.798 229.993C223.913 229.764 225.995 229.292 228.002 228.586L361.195 152.006C363.845 150.477 367.168 146.805 363.105 142.242L300.786 105.959C295.607 102.907 289.607 101.524 283.609 102.001C281.244 102.208 278.927 102.783 276.742 103.705L144.156 179.636C138.437 182.869 141.308 189.96 147.037 193.259Z" fill="#8499FF"/>
<path d="M145.282 192.819L206.32 227.926C213.396 232.005 224.833 232.005 231.877 227.926L360.466 154.051C367.499 149.983 367.466 143.386 360.389 139.307L299.351 104.2C292.275 100.131 280.827 100.131 273.794 104.2L145.205 178.075C138.161 182.143 138.205 188.751 145.282 192.819ZM207.545 225.969L145.061 190.026C144.19 189.524 143.467 188.803 142.964 187.934C142.462 187.066 142.197 186.081 142.197 185.079C142.197 184.076 142.462 183.092 142.964 182.223C143.467 181.355 144.19 180.633 145.061 180.131L274.887 105.508C278.379 103.499 282.341 102.441 286.374 102.441C290.407 102.441 294.369 103.499 297.861 105.508L307.531 111.071C307.725 111.181 307.885 111.341 307.995 111.533L312.554 119.593C312.71 119.878 312.944 120.114 313.228 120.274L332.249 131.214C332.449 131.331 332.671 131.406 332.9 131.434L345.044 132.842C345.352 132.875 345.649 132.972 345.916 133.127L361.659 142.187C362.42 142.624 363.052 143.253 363.492 144.011C363.931 144.768 364.163 145.628 364.163 146.503C364.163 147.378 363.931 148.237 363.492 148.995C363.052 149.753 362.42 150.381 361.659 150.818L230.828 225.98C227.287 228.01 223.272 229.078 219.185 229.076C215.099 229.074 211.085 228.003 207.545 225.969Z" fill="#3D3838"/>
<path d="M318.88 118.031L331.598 125.343C332.293 125.75 332.371 126.354 331.763 126.706C331.39 126.877 330.981 126.958 330.57 126.94C330.159 126.923 329.759 126.809 329.401 126.607L316.683 119.296C315.977 118.889 315.899 118.284 316.507 117.932C316.882 117.762 317.293 117.682 317.705 117.699C318.118 117.717 318.52 117.83 318.88 118.031Z" fill="#191414"/>
<path d="M335.274 171.324C335.401 170.964 335.58 170.623 335.803 170.312C336.046 169.976 336.354 169.692 336.709 169.477L348.378 162.77C348.536 162.656 348.721 162.586 348.915 162.567C349.109 162.547 349.304 162.58 349.482 162.66L350.586 163.32C350.408 163.239 350.213 163.207 350.019 163.226C349.825 163.246 349.64 163.316 349.482 163.43L337.813 170.169C337.464 170.388 337.16 170.672 336.919 171.005C336.69 171.313 336.512 171.654 336.389 172.017C336.287 172.307 336.231 172.611 336.223 172.918V173.413C336.2 173.612 336.232 173.813 336.316 173.996C336.4 174.178 336.532 174.334 336.698 174.447L335.594 173.787C335.43 173.673 335.3 173.516 335.218 173.334C335.136 173.152 335.106 172.951 335.13 172.753V172.259C335.127 171.941 335.175 171.626 335.274 171.324Z" fill="#3D3838"/>
<path d="M337.812 170.169L349.492 163.463C350.375 162.957 351.082 163.375 351.082 164.386V164.892C351.053 165.441 350.894 165.975 350.618 166.451C350.342 166.927 349.956 167.331 349.492 167.63L337.812 174.315C336.94 174.809 336.223 174.392 336.223 173.38V172.885C336.257 172.341 336.419 171.812 336.695 171.34C336.971 170.869 337.354 170.468 337.812 170.169Z" fill="#312D2D"/>
<path d="M317.467 181.571C317.59 181.209 317.769 180.868 317.997 180.56C318.232 180.221 318.537 179.936 318.891 179.724L330.571 173.006C330.729 172.892 330.914 172.822 331.108 172.803C331.302 172.784 331.498 172.816 331.675 172.896L332.834 173.556C332.655 173.483 332.461 173.455 332.268 173.474C332.076 173.493 331.891 173.559 331.73 173.666L320.061 180.384C319.706 180.599 319.398 180.883 319.156 181.219C318.932 181.53 318.754 181.871 318.626 182.231C318.527 182.518 318.475 182.818 318.471 183.122V183.627C318.449 183.826 318.481 184.028 318.564 184.21C318.648 184.392 318.78 184.548 318.946 184.661L317.842 184.001C317.676 183.888 317.544 183.732 317.46 183.55C317.377 183.368 317.345 183.167 317.368 182.968V182.462C317.349 182.162 317.382 181.86 317.467 181.571Z" fill="#3D3838"/>
<path d="M320.05 180.384L331.719 173.666C332.602 173.171 333.308 173.578 333.308 174.6V175.095C333.28 175.646 333.121 176.182 332.844 176.66C332.568 177.137 332.182 177.543 331.719 177.844L320.05 184.551C319.178 185.057 318.46 184.639 318.46 183.627V183.122C318.489 182.573 318.649 182.039 318.925 181.563C319.201 181.087 319.587 180.683 320.05 180.384Z" fill="#312D2D"/>
<path d="M334.004 129.785C334.484 130.029 335.016 130.156 335.555 130.156C336.094 130.156 336.626 130.029 337.106 129.785C337.967 129.29 337.956 128.487 337.106 127.993C336.626 127.748 336.094 127.621 335.555 127.621C335.016 127.621 334.484 127.748 334.004 127.993C333.815 128.056 333.652 128.176 333.536 128.337C333.42 128.498 333.357 128.691 333.357 128.889C333.357 129.087 333.42 129.28 333.536 129.44C333.652 129.601 333.815 129.722 334.004 129.785Z" fill="#191414"/>
<path opacity="0.1" d="M336.709 129.565C336.354 129.746 335.961 129.841 335.561 129.841C335.162 129.841 334.768 129.746 334.413 129.565C334.273 129.52 334.15 129.432 334.063 129.314C333.977 129.195 333.93 129.052 333.93 128.905C333.93 128.758 333.977 128.615 334.063 128.497C334.15 128.378 334.273 128.29 334.413 128.246C334.773 128.073 335.169 127.987 335.568 127.997C335.967 128.006 336.358 128.111 336.709 128.301C336.832 128.355 336.936 128.444 337.009 128.556C337.082 128.668 337.121 128.799 337.121 128.933C337.121 129.066 337.082 129.197 337.009 129.309C336.936 129.422 336.832 129.51 336.709 129.565Z" fill="#CFD5D5"/>
<path opacity="0.1" d="M336.179 129.213C335.985 129.311 335.772 129.362 335.555 129.362C335.338 129.362 335.125 129.311 334.931 129.213C334.589 129.004 334.6 128.685 334.931 128.487C335.125 128.39 335.338 128.339 335.555 128.339C335.772 128.339 335.985 128.39 336.179 128.487C336.543 128.696 336.532 129.015 336.179 129.213Z" fill="#CFD5D5"/>
<g style="mix-blend-mode:screen" opacity="0.2">
<path d="M335.793 128.971C335.722 129.009 335.642 129.028 335.561 129.028C335.48 129.028 335.401 129.009 335.329 128.971C335.208 128.894 335.208 128.773 335.329 128.707C335.402 128.672 335.481 128.654 335.561 128.654C335.642 128.654 335.721 128.672 335.793 128.707C335.926 128.784 335.926 128.905 335.793 128.971Z" fill="#CFD5D5"/>
</g>
<path opacity="0.5" d="M140.204 186.948C140.204 186.948 140.204 186.948 140.27 186.948C140.577 187.916 141.081 188.81 141.749 189.576C142.533 190.51 143.457 191.318 144.487 191.973C145.713 192.72 147.203 193.534 148.826 194.479L175.895 209.993L193.978 220.362L203.847 226.024C205.503 227.05 207.229 227.957 209.014 228.74C210.853 229.452 212.768 229.954 214.721 230.235C218.736 230.836 222.832 230.607 226.755 229.564C230.718 228.575 234.162 226.002 237.883 223.99L260.138 211.17C290.012 194.062 307.995 183.792 330.395 170.961L357.475 155.469C359.098 154.513 360.61 153.743 361.78 152.918C362.778 152.223 363.658 151.373 364.386 150.4C364.853 149.801 365.225 149.133 365.49 148.421C365.585 148.175 365.659 147.921 365.71 147.663C365.71 147.663 365.71 147.938 365.611 148.454C365.422 149.211 365.109 149.932 364.684 150.587C363.999 151.648 363.119 152.57 362.089 153.303C360.698 154.25 359.257 155.124 357.773 155.92L330.748 171.511C308.293 184.463 290.343 194.798 260.536 211.95L238.247 224.716C234.526 226.706 231.093 229.279 226.909 230.334C222.88 231.391 218.675 231.612 214.556 230.983C212.544 230.688 210.574 230.165 208.683 229.422C206.869 228.626 205.117 227.7 203.439 226.651L193.58 220.966L175.531 210.576L148.506 194.974C146.894 194.007 145.392 193.248 144.167 192.401C143.127 191.689 142.203 190.822 141.429 189.829C140.948 189.214 140.575 188.522 140.325 187.783C140.231 187.533 140.157 187.276 140.104 187.014C140.104 187.014 140.116 186.948 140.204 186.948Z" fill="#4B4444"/>
<g style="mix-blend-mode:screen" opacity="0.9">
<path d="M284.735 91.2914L366.66 138.394L218.486 223.594L136.561 176.492L284.735 91.2914Z" fill="#8499FF"/>
</g>
<g style="mix-blend-mode:screen" opacity="0.9">
<path d="M284.735 79.7466L366.66 126.849L218.486 212.049L136.561 164.947L284.735 79.7466Z" fill="#8499FF"/>
</g>
<path d="M175.95 220.054V218.24L180.928 215.348V217.162C180.934 217.212 180.927 217.262 180.907 217.308C180.888 217.354 180.857 217.395 180.818 217.426L175.828 220.318C175.871 220.289 175.905 220.25 175.927 220.203C175.948 220.156 175.956 220.105 175.95 220.054Z" fill="#353131"/>
<path d="M172.218 210.004C172.262 209.981 172.312 209.969 172.362 209.969C172.412 209.969 172.461 209.981 172.505 210.004L180.509 214.611L175.53 217.536L167.526 212.929C167.483 212.903 167.433 212.889 167.383 212.889C167.332 212.889 167.282 212.903 167.239 212.929L172.218 210.004Z" fill="#3F3939"/>
<path d="M180.52 214.644C180.641 214.72 180.743 214.823 180.816 214.945C180.889 215.068 180.931 215.206 180.939 215.348L175.961 218.24C175.952 218.097 175.91 217.959 175.837 217.837C175.764 217.714 175.662 217.611 175.541 217.536L180.52 214.644Z" fill="#262424"/>
<path d="M167.129 213.16C167.123 213.11 167.131 213.06 167.154 213.015C167.176 212.97 167.212 212.933 167.256 212.908C167.299 212.883 167.349 212.872 167.4 212.876C167.45 212.88 167.498 212.898 167.537 212.929L175.541 217.536C175.662 217.611 175.764 217.715 175.837 217.837C175.91 217.959 175.952 218.097 175.961 218.24V220.054C175.961 220.318 175.773 220.417 175.552 220.285L167.548 215.689C167.427 215.611 167.326 215.506 167.253 215.382C167.18 215.257 167.137 215.118 167.129 214.974V213.16Z" fill="#262424"/>
<path d="M170.165 216.184C169.568 215.843 169.061 216.118 169.061 216.799C169.083 217.173 169.195 217.535 169.387 217.856C169.579 218.178 169.846 218.449 170.165 218.646C170.75 218.987 171.268 218.712 171.268 218.031C171.243 217.658 171.13 217.297 170.938 216.976C170.747 216.655 170.481 216.383 170.165 216.184Z" fill="#353131"/>
<path d="M170.904 218.723L172.262 217.954C172.371 217.876 172.458 217.771 172.514 217.65C172.571 217.528 172.594 217.394 172.582 217.261C172.557 216.888 172.444 216.527 172.252 216.206C172.06 215.885 171.795 215.614 171.478 215.414C171.372 215.334 171.246 215.285 171.114 215.271C170.982 215.258 170.848 215.28 170.728 215.337L169.381 216.107C169.502 216.053 169.635 216.032 169.766 216.046C169.898 216.059 170.024 216.107 170.132 216.184C170.448 216.383 170.714 216.655 170.905 216.976C171.097 217.297 171.21 217.658 171.236 218.031C171.248 218.165 171.224 218.301 171.166 218.423C171.108 218.545 171.017 218.649 170.904 218.723Z" fill="#3F3939"/>
<path d="M169.436 216.491L121.248 244.199C120.524 244.619 119.924 245.221 119.506 245.944C119.089 246.668 118.869 247.487 118.869 248.322C118.869 249.156 119.089 249.976 119.506 250.7C119.924 251.423 120.524 252.025 121.248 252.445L155.913 272.423C156.282 272.635 156.588 272.941 156.801 273.308C157.014 273.676 157.127 274.093 157.127 274.517C157.127 274.942 157.014 275.359 156.801 275.727C156.588 276.094 156.282 276.4 155.913 276.612L52.9903 335.732C52.2663 336.152 51.6656 336.754 51.2481 337.477C50.8306 338.201 50.6109 339.021 50.6109 339.855C50.6109 340.69 50.8306 341.51 51.2481 342.233C51.6656 342.957 52.2663 343.558 52.9903 343.978L90.0834 365.298C90.4533 365.508 90.7606 365.812 90.9739 366.179C91.1873 366.546 91.299 366.963 91.2978 367.387C91.3025 367.811 91.1922 368.23 90.9785 368.597C90.7648 368.965 90.4556 369.268 90.0834 369.476L0 421.284V423.989L91.2647 371.51C91.9914 371.092 92.5949 370.491 93.0145 369.767C93.4341 369.043 93.655 368.222 93.655 367.387C93.655 366.551 93.4341 365.73 93.0145 365.006C92.5949 364.282 91.9914 363.681 91.2647 363.264L54.1936 341.944C53.8214 341.737 53.5122 341.433 53.2985 341.066C53.0848 340.698 52.9745 340.28 52.9792 339.855C52.978 339.431 53.0897 339.014 53.3031 338.647C53.5164 338.28 53.8237 337.976 54.1936 337.766L157.094 278.591C157.821 278.173 158.424 277.572 158.844 276.849C159.263 276.125 159.484 275.304 159.484 274.468C159.484 273.632 159.263 272.811 158.844 272.088C158.424 271.364 157.821 270.763 157.094 270.345L122.43 250.433C122.06 250.221 121.754 249.915 121.541 249.548C121.328 249.18 121.216 248.763 121.216 248.338C121.216 247.914 121.328 247.497 121.541 247.129C121.754 246.762 122.06 246.456 122.43 246.244L170.618 218.547C171.401 218.075 170.198 216.063 169.436 216.491Z" fill="#353131"/>
<g style="mix-blend-mode:multiply" opacity="0.7">
<path d="M165.374 181.505H242.905L208.274 123.705L136.561 164.947L165.374 181.505Z" fill="#4C6EC9"/>
</g>
<path d="M242.905 181.505L184.727 148.059V86.1018L242.905 119.56V181.505Z" fill="#4C6EC9"/>
<path d="M301.084 148.059L242.905 181.505V119.56L301.084 86.1018V148.059Z" fill="#6681E2"/>
<path d="M242.905 113.831L181.249 78.3723L242.905 42.9135L304.562 78.3723L242.905 113.831Z" fill="#FFFCF8"/>
<path d="M242.905 126.992L181.249 91.5333V78.3723L242.905 113.831V126.992Z" fill="#CECABE"/>
<path d="M304.562 91.5333L242.905 126.992V113.831L304.562 78.3723V91.5333Z" fill="#E9E5DE"/>
<path d="M270.957 65.5301L222.505 93.3914L216.72 90.0599L265.173 62.1986L270.957 65.5301Z" fill="#C9C5BA"/>
<g style="mix-blend-mode:multiply" opacity="0.6">
<path d="M265.172 62.1986L265.15 68.8616L270.957 65.5301L265.172 62.1986Z" fill="#C9C5BA"/>
</g>
<path d="M268.672 66.8275L223.896 92.5668V47.4763L268.672 21.7371V66.8275Z" fill="#E9E5DE"/>
<mask id="mask0_507_3327" style="mask-type:luminance" maskUnits="userSpaceOnUse" x="223" y="7" width="46" height="86">
<path d="M268.672 66.8715L223.896 92.6108V33.5457L268.672 7.79541V66.8715Z" fill="white"/>
</mask>
<g mask="url(#mask0_507_3327)">
<path d="M263.726 34.6451L256.076 39.0431C255.987 39.0946 255.912 39.1663 255.856 39.2523C255.801 39.3383 255.766 39.4361 255.756 39.5379V47.1574C255.756 47.3334 255.899 47.3993 256.076 47.3004L263.726 42.9024C263.815 42.8509 263.89 42.7792 263.946 42.6932C264.002 42.6072 264.036 42.5094 264.047 42.4076V34.7881C264.047 34.6122 263.903 34.5462 263.726 34.6451ZM263.462 42.1437C263.451 42.2496 263.415 42.3515 263.358 42.4413C263.3 42.531 263.222 42.6061 263.13 42.6605L256.672 46.3768C256.496 46.4758 256.352 46.3768 256.352 46.2339V39.8128C256.36 39.7074 256.393 39.6055 256.449 39.5155C256.505 39.4256 256.581 39.3503 256.672 39.296L263.13 35.5797C263.307 35.4808 263.462 35.5797 263.462 35.7226V42.1437Z" fill="#B4B4B4"/>
<path d="M263.726 50.0052L256.076 54.4032C255.988 54.4553 255.913 54.5272 255.857 54.613C255.802 54.6989 255.767 54.7964 255.756 54.8979V62.5285C255.756 62.7044 255.899 62.7594 256.076 62.6604L263.726 58.2624C263.815 58.2079 263.89 58.134 263.945 58.0463C264.001 57.9587 264.035 57.8596 264.047 57.7566V50.1371C264.047 49.9612 263.903 49.9062 263.726 50.0052ZM263.462 57.5038C263.448 57.609 263.412 57.7099 263.354 57.7993C263.297 57.8887 263.221 57.9642 263.13 58.0205L256.672 61.7258C256.496 61.8358 256.352 61.7258 256.352 61.5939V55.1618C256.363 55.0573 256.398 54.9567 256.453 54.8673C256.509 54.7779 256.583 54.7019 256.672 54.6451L263.13 50.9397C263.307 50.8298 263.462 50.9397 263.462 51.0717V57.5038Z" fill="#B4B4B4"/>
<path d="M263.726 65.3541L256.076 69.7521C255.987 69.8036 255.912 69.8753 255.856 69.9613C255.801 70.0472 255.766 70.1451 255.756 70.2469V77.8664C255.756 78.0423 255.899 78.1083 256.076 77.9984L263.726 73.6004C263.815 73.5489 263.89 73.4772 263.946 73.3912C264.002 73.3052 264.036 73.2074 264.047 73.1056V65.4751C264.047 65.3211 263.903 65.2552 263.726 65.3541ZM263.462 72.8527C263.451 72.9586 263.415 73.0605 263.358 73.1503C263.3 73.24 263.222 73.3151 263.13 73.3695L256.672 77.0858C256.496 77.1847 256.352 77.0858 256.352 76.9428V70.5218C256.36 70.4164 256.393 70.3144 256.449 70.2245C256.505 70.1346 256.581 70.0593 256.672 70.005L263.13 66.2887C263.307 66.1897 263.462 66.2887 263.462 66.4316V72.8527Z" fill="#B4B4B4"/>
<path d="M263.726 80.7141L256.076 85.1121C255.987 85.1636 255.912 85.2353 255.856 85.3213C255.801 85.4073 255.766 85.5051 255.756 85.6069V93.2045C255.756 93.3804 255.899 93.4353 256.076 93.3364L263.726 88.9384C263.815 88.8869 263.89 88.8152 263.946 88.7293C264.002 88.6433 264.036 88.5454 264.047 88.4436V80.8241C264.047 80.6702 263.903 80.6152 263.726 80.7141ZM263.462 88.2127C263.448 88.3179 263.412 88.4189 263.354 88.5083C263.297 88.5977 263.221 88.6732 263.13 88.7295L256.672 92.4348C256.496 92.5448 256.352 92.4348 256.352 92.2919V85.8708C256.36 85.7654 256.393 85.6635 256.449 85.5735C256.505 85.4836 256.581 85.4083 256.672 85.354L263.13 81.6377C263.307 81.5388 263.462 81.6377 263.462 81.7807V88.2127Z" fill="#B4B4B4"/>
<path d="M239.307 52.369L242.85 50.335V51.1816L239.307 53.2157V52.369Z" fill="#B4B4B4"/>
<path d="M239.65 56.3493V55.5137L236.89 57.0969L235.068 58.1415V58.9881L236.89 57.9436L239.65 56.3493Z" fill="#B4B4B4"/>
<path d="M233.776 58.8892L229.25 61.495V62.3306L233.776 59.7248V58.8892Z" fill="#B4B4B4"/>
<path d="M236.117 55.0518L238.016 53.9523V53.1167L234.737 54.9968L229.272 58.1414V58.977L236.117 55.0518Z" fill="#B4B4B4"/>
<path d="M230.752 54.7989L235.212 52.2371V51.3905L230.752 53.9523L229.306 54.788V55.6236L230.752 54.7989Z" fill="#B4B4B4"/>
<path d="M239.649 49.6863L241.084 48.8616V48.015L239.186 49.1035L236.503 50.6538V51.4894L239.649 49.6863Z" fill="#B4B4B4"/>
<path d="M251.296 42.1437L249.309 43.2872V44.1228L251.296 42.9793V42.1437Z" fill="#B4B4B4"/>
<path d="M248.018 44.0349L246.307 45.0135V45.8491L248.018 44.8705V44.0349Z" fill="#B4B4B4"/>
<path d="M251.329 45.4642L248.072 47.3334V48.169L251.329 46.2999V45.4642Z" fill="#B4B4B4"/>
<path d="M246.45 51.5994L245.059 52.402V53.2376L246.45 52.446V51.5994Z" fill="#B4B4B4"/>
<path d="M247.741 50.8627V51.6983L251.351 49.6203V48.7847L247.741 50.8627Z" fill="#B4B4B4"/>
<path d="M235.973 72.8967L229.261 76.756V77.5916L235.973 73.7323V72.8967Z" fill="#B4B4B4"/>
<path d="M242.873 62.2535L238.015 65.0573L234.77 66.9154V67.762L238.015 65.8929L242.873 63.1002V62.2535Z" fill="#B4B4B4"/>
<path d="M233.28 71.1156L229.272 73.4135V74.2601L233.28 71.9512L237.74 69.3893V68.5427L233.28 71.1156Z" fill="#B4B4B4"/>
<path d="M239.031 67.806V68.6416L241.383 67.2892V66.4536L239.031 67.806Z" fill="#B4B4B4"/>
<path d="M237.275 72.9956L241.504 70.5547V69.7191L237.275 72.149V72.9956Z" fill="#B4B4B4"/>
<path d="M229.261 70.9286L233.478 68.5097V67.6631L229.261 70.082V70.9286Z" fill="#B4B4B4"/>
<path d="M251.33 64.0677L245.545 67.3992V68.2349L251.33 64.9034V64.0677Z" fill="#B4B4B4"/>
<path d="M246.781 64.1886L251.33 61.5718V60.7252L246.781 63.353V64.1886Z" fill="#B4B4B4"/>
<path d="M248.039 60.1316L251.34 58.2294V57.3938L248.039 59.2849V60.1316Z" fill="#B4B4B4"/>
<path d="M241.537 81.7916L237.298 84.2325V85.0681L241.537 82.6382V81.7916Z" fill="#B4B4B4"/>
<path d="M242.067 84.8263L237.883 87.2232V88.0698L242.067 85.6619V84.8263Z" fill="#B4B4B4"/>
<path d="M229.316 86.3216L231.094 85.31L236.304 82.3084V81.4618L231.513 84.2215L229.316 85.486V86.3216Z" fill="#B4B4B4"/>
<path d="M236.591 87.9708L231.215 91.0714L229.294 92.1709V93.0065L231.866 91.5332L236.591 88.8174V87.9708Z" fill="#B4B4B4"/>
<path d="M229.306 89.6641L232.452 87.8609L236.007 85.8158V84.9802L230.873 87.9269L229.306 88.8285V89.6641Z" fill="#B4B4B4"/>
<path d="M242.177 78.0863L240.632 78.9769L240.289 79.1748L237.596 80.7251V81.5607L240.289 80.0214L240.632 79.8235L242.177 78.9329V78.0863Z" fill="#B4B4B4"/>
<path d="M245.213 77.1848L246.913 76.2062V75.3596L245.213 76.3492V77.1848Z" fill="#B4B4B4"/>
<path d="M248.216 75.4586L251.285 73.6994V72.8528L248.216 74.623V75.4586Z" fill="#B4B4B4"/>
<path d="M247.863 82.3305L251.297 80.3514V79.5157L247.863 81.4948V82.3305Z" fill="#B4B4B4"/>
<path d="M247.277 79.3288L251.296 77.0198V76.1842L247.277 78.4932V79.3288Z" fill="#B4B4B4"/>
<path d="M245.986 79.2408L244.353 80.1754V81.011L245.986 80.0765V79.2408Z" fill="#B4B4B4"/>
<path d="M246.561 82.2424L244.927 83.177V84.0236L246.561 83.078V82.2424Z" fill="#B4B4B4"/>
<path d="M248.018 89.884L246.307 90.8735V91.7091L248.018 90.7306V89.884Z" fill="#B4B4B4"/>
<path d="M251.329 91.3243L248.072 93.1935V94.0291L251.329 92.16V91.3243Z" fill="#B4B4B4"/>
<path d="M251.296 88.8395V88.0039L249.309 89.1474V89.983L251.296 88.8395Z" fill="#B4B4B4"/>
<path d="M265.581 44.9585C264.477 47.1025 263.461 49.2575 262.435 51.4126C261.607 53.2047 260.768 54.9969 259.962 56.7891C258.659 55.6126 257.312 54.4692 255.899 53.4136C255.8 53.3477 255.612 53.4136 255.469 53.5786C255.325 53.7435 255.248 53.9964 255.336 54.1063C256.634 55.6474 258.016 57.1156 259.476 58.5043C259.529 58.5496 259.595 58.5766 259.664 58.5813C259.85 58.55 260.024 58.472 260.171 58.3546C260.318 58.2372 260.432 58.0844 260.503 57.9106C261.53 55.7116 262.457 53.5786 263.428 51.4126C264.4 49.2465 265.294 47.1025 266.155 44.9365C266.232 44.7496 266.155 44.5957 266.056 44.5737C265.956 44.5517 265.692 44.7386 265.581 44.9585Z" fill="#539933"/>
</g>
<path d="M254.012 142.187V134.678C254.012 134.592 254.038 134.508 254.085 134.436C254.132 134.364 254.198 134.306 254.277 134.271L257.279 132.534C257.495 132.369 257.744 132.253 258.008 132.192C258.273 132.131 258.548 132.128 258.814 132.182C259.167 132.328 259.344 132.724 259.344 133.369V133.886C259.333 134.261 259.239 134.628 259.069 134.963C258.9 135.297 258.658 135.59 258.361 135.821C258.486 135.763 258.621 135.733 258.759 135.733C258.896 135.733 259.032 135.763 259.156 135.821C259.366 135.931 259.465 136.184 259.465 136.591V137.338C259.463 137.982 259.275 138.612 258.924 139.153C258.538 139.73 258.02 140.209 257.412 140.549L254.277 142.352C254.1 142.396 254.012 142.352 254.012 142.187ZM255.745 136.69L257.015 135.953C257.249 135.832 257.453 135.659 257.611 135.447C257.738 135.251 257.804 135.021 257.798 134.788V134.304C257.798 134.04 257.732 133.897 257.611 133.853C257.489 133.809 257.302 133.853 257.026 134.018L255.745 134.755C255.702 134.774 255.666 134.805 255.641 134.844C255.615 134.883 255.602 134.928 255.601 134.975V136.635C255.601 136.712 255.646 136.734 255.745 136.679V136.69ZM255.745 140.142L257.147 139.329C257.381 139.207 257.585 139.034 257.743 138.823C257.866 138.625 257.927 138.395 257.92 138.163V137.437C257.92 137.174 257.854 137.031 257.732 136.998C257.611 136.965 257.401 136.998 257.114 137.185L255.745 137.976C255.702 137.995 255.666 138.026 255.641 138.065C255.615 138.104 255.602 138.15 255.601 138.196V140.076C255.601 140.164 255.646 140.175 255.745 140.131V140.142Z" fill="#FFFCF8"/>
<path d="M261.806 137.965L260.602 138.658C260.448 138.735 260.404 138.658 260.448 138.482L262.435 129.84C262.46 129.737 262.506 129.641 262.571 129.558C262.635 129.475 262.717 129.406 262.81 129.356L264.477 128.4C264.687 128.279 264.809 128.301 264.853 128.4L266.829 134.766C266.855 134.831 266.855 134.905 266.828 134.97C266.801 135.036 266.75 135.088 266.685 135.117L265.482 135.81C265.383 135.81 265.327 135.876 265.294 135.81C265.261 135.744 265.228 135.744 265.217 135.656L264.864 134.48L262.424 135.887L262.071 137.459C262.06 137.549 262.03 137.635 261.982 137.712C261.951 137.812 261.889 137.901 261.806 137.965ZM263.627 130.401L262.722 134.524L264.577 133.424L263.671 130.335L263.627 130.401Z" fill="#FFFCF8"/>
<path d="M272.337 131.907L268.263 134.282C268.086 134.381 267.998 134.348 267.998 134.172V126.662C268 126.577 268.026 126.493 268.073 126.421C268.119 126.35 268.185 126.292 268.263 126.255L269.367 125.64C269.533 125.541 269.621 125.574 269.621 125.75V131.995C269.621 132.083 269.621 132.105 269.775 131.995L272.425 130.478C272.591 130.379 272.668 130.423 272.668 130.609V131.456C272.672 131.557 272.641 131.657 272.581 131.739C272.521 131.821 272.435 131.88 272.337 131.907Z" fill="#FFFCF8"/>
<path d="M277.956 128.674L273.838 131.049C273.662 131.148 273.573 131.104 273.573 130.928V123.43C273.574 123.344 273.599 123.26 273.646 123.188C273.693 123.116 273.76 123.059 273.838 123.023L274.942 122.407C275.119 122.308 275.207 122.341 275.207 122.517V128.762C275.207 128.85 275.262 128.861 275.362 128.762L278 127.245C278.166 127.146 278.254 127.19 278.254 127.377V128.224C278.258 128.32 278.232 128.416 278.178 128.497C278.125 128.578 278.047 128.64 277.956 128.674Z" fill="#FFFCF8"/>
<path d="M282.549 126.036L281.147 126.838C280.933 127.006 280.685 127.125 280.42 127.188C280.155 127.251 279.879 127.255 279.612 127.201C279.259 127.058 279.071 126.651 279.071 126.003V122.044C279.072 121.397 279.26 120.763 279.612 120.219C280.005 119.639 280.531 119.16 281.147 118.823L282.549 118.009C282.763 117.846 283.009 117.729 283.272 117.669C283.535 117.608 283.808 117.604 284.072 117.657C284.437 117.8 284.613 118.196 284.613 118.856V122.814C284.619 123.459 284.431 124.091 284.072 124.628C283.688 125.214 283.165 125.698 282.549 126.036ZM281.39 125.321L282.284 124.815C282.509 124.694 282.705 124.525 282.858 124.32C282.975 124.116 283.032 123.884 283.023 123.65V119.845C283.023 119.581 282.968 119.428 282.858 119.373C282.747 119.318 282.549 119.373 282.284 119.538L281.39 120.043C281.165 120.161 280.972 120.331 280.827 120.538C280.71 120.738 280.652 120.967 280.661 121.198V125.013C280.661 125.277 280.716 125.431 280.827 125.486C280.937 125.541 281.125 125.475 281.39 125.321Z" fill="#FFFCF8"/>
<path d="M288.609 122.55L287.561 123.155C287.373 123.254 287.285 123.221 287.285 123.045V116.8C287.285 116.701 287.285 116.69 287.141 116.734L285.717 117.558C285.54 117.657 285.452 117.624 285.452 117.448V116.602C285.452 116.514 285.477 116.429 285.524 116.355C285.571 116.281 285.638 116.222 285.717 116.184L290.453 113.468C290.63 113.358 290.718 113.402 290.718 113.578V114.425C290.717 114.511 290.692 114.595 290.645 114.667C290.598 114.739 290.532 114.796 290.453 114.832L289.029 115.656C288.985 115.675 288.947 115.705 288.92 115.744C288.893 115.783 288.877 115.829 288.874 115.876V122.132C288.875 122.22 288.85 122.306 288.803 122.38C288.756 122.453 288.689 122.513 288.609 122.55Z" fill="#FFFCF8"/>
<path d="M254.056 153.193V145.695C254.057 145.607 254.082 145.522 254.129 145.449C254.176 145.375 254.242 145.315 254.321 145.277L257.323 143.551C257.539 143.386 257.788 143.27 258.052 143.209C258.317 143.148 258.592 143.145 258.858 143.199C259.211 143.342 259.399 143.738 259.399 144.386V144.881C259.387 145.258 259.292 145.628 259.121 145.965C258.949 146.301 258.705 146.596 258.405 146.827C258.528 146.76 258.663 146.721 258.802 146.711C258.941 146.702 259.081 146.723 259.211 146.772C259.41 146.882 259.509 147.135 259.509 147.542V148.29C259.511 148.934 259.323 149.565 258.968 150.104C258.582 150.681 258.064 151.16 257.456 151.5L254.321 153.292C254.144 153.413 254.056 153.369 254.056 153.193ZM255.789 147.696L257.069 146.959C257.299 146.835 257.499 146.662 257.655 146.453C257.781 146.257 257.846 146.027 257.842 145.794V145.299C257.842 145.046 257.776 144.892 257.666 144.848C257.456 144.835 257.248 144.898 257.081 145.024L255.789 145.761C255.745 145.778 255.708 145.809 255.683 145.848C255.657 145.888 255.644 145.934 255.645 145.981V147.641C255.645 147.729 255.69 147.751 255.789 147.696ZM255.789 151.137L257.224 150.379C257.458 150.257 257.662 150.084 257.82 149.873C257.943 149.675 258.004 149.445 257.997 149.213V148.487C257.997 148.224 257.997 148.081 257.809 148.048C257.621 148.015 257.478 148.048 257.202 148.235L255.822 149.026C255.779 149.044 255.741 149.075 255.716 149.114C255.69 149.153 255.677 149.199 255.678 149.246V151.126C255.645 151.181 255.69 151.192 255.789 151.137Z" fill="#FFFCF8"/>
<path d="M264.355 147.531L262.953 148.344C262.739 148.508 262.493 148.624 262.23 148.685C261.967 148.746 261.694 148.749 261.43 148.696C261.065 148.553 260.889 148.158 260.889 147.498V143.54C260.883 142.895 261.071 142.263 261.43 141.725C261.811 141.137 262.335 140.653 262.953 140.318L264.355 139.504C264.571 139.34 264.819 139.223 265.084 139.163C265.349 139.102 265.624 139.099 265.89 139.153C266.243 139.296 266.431 139.702 266.431 140.351V144.309C266.43 144.957 266.242 145.59 265.89 146.134C265.497 146.715 264.971 147.194 264.355 147.531ZM263.251 146.827L264.134 146.31C264.364 146.196 264.561 146.025 264.709 145.816C264.825 145.616 264.883 145.387 264.874 145.156V141.341C264.874 141.077 264.819 140.923 264.709 140.879C264.598 140.824 264.41 140.879 264.134 141.033L263.251 141.55C263.03 141.667 262.838 141.832 262.688 142.033C262.571 142.237 262.513 142.469 262.523 142.704V146.508C262.523 146.772 262.578 146.926 262.688 146.981C262.799 147.036 262.942 146.981 263.207 146.827H263.251Z" fill="#FFFCF8"/>
<path d="M268.849 144.958L267.601 145.673C267.524 145.673 267.458 145.728 267.425 145.673C267.392 145.618 267.425 145.574 267.425 145.486L269.368 140.538L267.491 137.976C267.475 137.948 267.466 137.916 267.466 137.883C267.466 137.85 267.475 137.818 267.491 137.789C267.528 137.706 267.589 137.637 267.668 137.591L268.871 136.91C269.081 136.789 269.213 136.789 269.28 136.91L270.472 138.944H270.527L271.697 135.579C271.772 135.372 271.916 135.198 272.106 135.084L273.331 134.381C273.419 134.381 273.475 134.381 273.519 134.381C273.535 134.409 273.544 134.441 273.544 134.474C273.544 134.507 273.535 134.539 273.519 134.568L271.62 139.296L273.563 142C273.579 142.031 273.588 142.065 273.588 142.099C273.588 142.134 273.579 142.168 273.563 142.198C273.522 142.281 273.456 142.35 273.375 142.396L272.117 143.111C271.94 143.21 271.819 143.199 271.752 143.111L270.516 141.132H270.461L269.213 144.54C269.142 144.716 269.013 144.863 268.849 144.958Z" fill="#FFFCF8"/>
<path d="M249.562 131.995V152.468L250.424 151.962V132.358L294.306 107.113V125.871L276.985 135.832V136.69L295.167 126.233V105.761L249.562 131.995Z" fill="#FFFCF8"/>
<g style="mix-blend-mode:multiply" opacity="0.5">
<path d="M243.777 255.93L263.516 267.277C265.005 268.033 266.653 268.427 268.324 268.427C269.995 268.427 271.643 268.033 273.132 267.277L337.702 230.081C340.352 228.542 340.33 226.057 337.702 224.584L317.942 213.138C316.453 212.382 314.805 211.988 313.134 211.988C311.462 211.988 309.815 212.382 308.326 213.138L243.755 250.334C241.084 251.873 241.117 254.358 243.777 255.93Z" fill="#2D5477"/>
</g>
<path d="M241.768 244.001V247.299C241.824 247.9 242.04 248.476 242.393 248.966C242.746 249.457 243.224 249.846 243.777 250.092L263.505 261.428C264.994 262.184 266.641 262.578 268.312 262.578C269.984 262.578 271.631 262.184 273.12 261.428L337.691 224.232C338.235 223.986 338.705 223.602 339.052 223.117C339.399 222.632 339.611 222.065 339.667 221.472V218.229C339.611 218.82 339.398 219.385 339.051 219.868C338.704 220.351 338.235 220.734 337.691 220.977L273.131 258.129C271.642 258.885 269.995 259.279 268.323 259.279C266.652 259.279 265.005 258.885 263.516 258.129L243.777 246.805C243.222 246.557 242.744 246.167 242.39 245.674C242.037 245.181 241.822 244.604 241.768 244.001Z" fill="#F5F2EE"/>
<path d="M243.777 246.805L263.516 258.129C265.005 258.885 266.653 259.279 268.324 259.279C269.995 259.279 271.643 258.885 273.132 258.129L337.702 220.922C340.352 219.383 340.33 216.909 337.702 215.425L317.942 204.045C316.453 203.289 314.805 202.895 313.134 202.895C311.462 202.895 309.815 203.289 308.326 204.045L243.755 241.252C241.084 242.791 241.117 245.276 243.777 246.805Z" fill="#FFB8DF"/>
<path d="M282.692 243.407L279.778 245.078C279.619 245.161 279.443 245.204 279.264 245.204C279.086 245.204 278.909 245.161 278.751 245.078L262.004 239.438C261.562 239.306 261.54 239.119 261.938 238.899L264.024 237.69C264.18 237.611 264.352 237.569 264.526 237.569C264.701 237.569 264.873 237.611 265.029 237.69L278.276 242.637L278.365 242.582L269.765 234.952C269.522 234.743 269.544 234.545 269.831 234.38L271.929 233.182C272.061 233.069 272.229 233.007 272.403 233.007C272.577 233.007 272.746 233.069 272.878 233.182L282.747 242.813C282.99 243.044 282.968 243.242 282.692 243.407ZM295.487 236.04L293.003 237.47C291.901 238.128 290.64 238.475 289.355 238.475C288.069 238.475 286.808 238.128 285.706 237.47L278.663 233.413C277.492 232.742 276.918 232.049 276.929 231.324C276.941 230.598 277.537 229.894 278.707 229.224L281.202 227.794C282.306 227.142 283.562 226.79 284.845 226.772C286.128 226.771 287.387 227.117 288.488 227.772L295.531 231.818C296.701 232.489 297.276 233.193 297.264 233.918C297.253 234.644 296.657 235.37 295.487 236.04ZM290.994 235.81L292.573 234.908C293.047 234.633 293.29 234.38 293.29 234.149C293.29 233.918 293.047 233.666 292.573 233.402L285.794 229.542C285.405 229.293 284.955 229.152 284.492 229.136C284.025 229.154 283.572 229.294 283.178 229.542L281.599 230.455C281.125 230.719 280.893 230.972 280.904 231.203C280.915 231.434 281.147 231.675 281.621 231.95L288.4 235.843C288.789 236.094 289.239 236.238 289.702 236.26C290.166 236.227 290.611 236.072 290.994 235.81ZM307.355 229.213L305.489 230.312C305.346 230.403 305.179 230.451 305.009 230.451C304.839 230.451 304.672 230.403 304.529 230.312L293.401 223.913C293.327 223.869 293.243 223.846 293.158 223.846C293.072 223.846 292.988 223.869 292.915 223.913L290.343 225.364C290.204 225.451 290.043 225.497 289.879 225.497C289.715 225.497 289.554 225.451 289.415 225.364L287.903 224.496C287.594 224.309 287.594 224.133 287.903 223.957L296.304 219.13C296.441 219.039 296.603 218.991 296.768 218.991C296.933 218.991 297.094 219.039 297.231 219.13L298.744 219.999C299.053 220.175 299.053 220.351 298.744 220.527L296.216 221.989C296.028 222.088 296.028 222.187 296.216 222.286L307.344 228.685C307.664 228.861 307.664 229.037 307.355 229.224V229.213ZM321.618 221.01L314.354 225.188C314.215 225.275 314.054 225.321 313.89 225.321C313.726 225.321 313.565 225.275 313.427 225.188L300.069 217.492C299.759 217.316 299.759 217.14 300.069 216.953L307.333 212.775C307.471 212.692 307.629 212.647 307.791 212.647C307.952 212.647 308.111 212.692 308.249 212.775L309.75 213.644C310.07 213.831 310.07 214.007 309.75 214.171L305.114 216.843C304.926 216.942 304.926 217.041 305.114 217.14L307.995 218.8C308.074 218.846 308.163 218.87 308.254 218.87C308.346 218.87 308.435 218.846 308.514 218.8L312.312 216.601C312.45 216.514 312.611 216.468 312.775 216.468C312.939 216.468 313.1 216.514 313.239 216.601L314.751 217.47C315.06 217.646 315.06 217.833 314.751 218.009L310.954 220.208C310.777 220.318 310.766 220.417 310.954 220.505L314.045 222.286C314.122 222.331 314.209 222.355 314.299 222.355C314.388 222.355 314.476 222.331 314.553 222.286L319.2 219.614C319.335 219.528 319.492 219.482 319.653 219.482C319.813 219.482 319.97 219.528 320.105 219.614L321.618 220.483C321.905 220.669 321.916 220.845 321.618 221.021V221.01Z" fill="#FFFCF8"/>
</g>
<defs>
<linearGradient id="paint0_linear_507_3327" x1="365.721" y1="192.039" x2="139.916" y2="192.039" gradientUnits="userSpaceOnUse">
<stop stop-color="#322E2E"/>
<stop offset="1" stop-color="#242121"/>
</linearGradient>
<clipPath id="clip0_507_3327">
<rect width="393" height="424" fill="white"/>
</clipPath>
</defs>
</svg>
