<svg width="53" height="72" viewBox="0 0 53 72" fill="none" xmlns="http://www.w3.org/2000/svg">
<g clip-path="url(#clip0_507_3613)">
<path opacity="0.8" d="M29.1689 39.8799C29.0828 40.7908 27.8431 41.5331 26.3477 41.5331C24.7932 41.5331 23.5708 40.7364 23.6741 39.7575C23.7774 38.7787 25.1498 38.0499 26.692 38.1261C28.1703 38.1777 29.255 38.969 29.1689 39.8799Z" fill="url(#paint0_linear_507_3613)"/>
<path d="M51.9177 34.4444C51.9348 40.7193 50.0834 46.826 46.6492 51.8222C44.6532 54.751 42.1456 57.2072 39.2752 59.0451C36.4048 60.883 33.2298 62.0653 29.9385 62.5218L30.9617 59.8027C36.9323 58.5928 42.233 54.8356 45.7194 49.3423C48.5954 44.8425 50.1332 39.4647 50.1197 33.955C50.1192 32.5401 50.0197 31.1274 49.8221 29.7295C49.2964 26.0387 48.07 22.5127 46.2236 19.3833L46.932 17.4935C50.1723 22.4195 51.9176 28.3537 51.9177 34.4444Z" fill="url(#paint1_linear_507_3613)"/>
<path d="M30.0268 7.76733L29.6849 9.27643C29.5594 9.24652 29.4389 9.21661 29.3085 9.19213C28.4812 9.0136 27.6403 8.92255 26.7973 8.92023C25.8147 8.92145 24.8354 9.04459 23.8777 9.2873L23.5801 7.76189C24.6357 7.49716 25.7148 7.36309 26.7973 7.36218C27.4788 7.36306 28.1593 7.41758 28.8338 7.52533C29.2471 7.58515 29.6406 7.66672 30.0268 7.76733Z" fill="url(#paint2_linear_507_3613)"/>
<path d="M32.7824 0.395874L31.4394 4.85519L31.0286 6.21474L30.581 7.70209L30.3793 8.37371L26.5079 21.2242L23.0349 7.72385L22.6487 6.21747L21.1557 0.395874H0.00292969L6.48404 17.6893L7.22193 19.6253L22.083 59.2916L23.1259 62.0732L26.4956 71.0789L29.8283 62.1928L30.8515 59.4737L40.1981 34.5695L46.0594 18.9483L46.7653 17.0694L53.0103 0.417625L32.7824 0.395874ZM26.8301 43.9232C23.4407 43.9232 20.6958 40.8126 20.6958 36.9732C20.6958 33.1338 23.4407 30.0205 26.8301 30.0205C30.2194 30.0205 32.9644 33.1311 32.9644 36.9678C32.9644 40.8044 30.217 43.9232 26.8301 43.9232Z" fill="url(#paint3_linear_507_3613)"/>
<path d="M0.892668 34.4444C0.877715 40.7202 2.73175 46.827 6.16857 51.8222C8.16458 54.751 10.6721 57.2072 13.5425 59.0451C16.413 60.883 19.5879 62.0653 22.8793 62.5218L21.8561 59.8027C15.8854 58.5928 10.5847 54.8356 7.0983 49.3423C4.22236 44.8425 2.6845 39.4647 2.69804 33.955C2.69852 32.5401 2.79802 31.1274 2.99565 29.7295C3.52242 26.039 4.74868 22.5133 6.59408 19.3833L5.88571 17.4935C2.64311 22.4215 0.896785 28.3588 0.897592 34.4526L0.892668 34.4444Z" fill="url(#paint4_linear_507_3613)"/>
<mask id="mask0_507_3613" style="mask-type:luminance" maskUnits="userSpaceOnUse" x="-38" y="18" width="83" height="54">
<path d="M-37.8683 71.0652L44.084 71.0652L44.084 18.9265L-37.8683 18.9265V71.0652Z" fill="white"/>
</mask>
<g mask="url(#mask0_507_3613)">
<mask id="mask1_507_3613" style="mask-type:luminance" maskUnits="userSpaceOnUse" x="25" y="31" width="5" height="10">
<path d="M25.2681 39.8527C25.3401 40.0084 25.4467 40.1412 25.578 40.2388C25.6334 40.2794 25.6919 40.3149 25.7526 40.3448C25.8847 40.407 26.0251 40.4447 26.1683 40.4563C26.2682 40.4644 26.3685 40.4644 26.4684 40.4563C26.5225 40.4563 26.5741 40.4373 26.6258 40.4237C26.7296 40.3893 26.8283 40.338 26.9185 40.2714C27.2476 40.0143 27.507 39.6626 27.6687 39.2545C27.6975 39.1776 27.7214 39.0986 27.74 39.0179C27.9072 38.0499 28.0155 37.5795 28.2467 36.6305C28.6156 35.1214 29.0264 33.6232 29.3338 32.1141C28.104 31.9619 27.3858 31.9619 25.9617 31.8776C25.7305 33.7809 25.4944 35.6707 25.2853 37.5714C25.2287 38.0934 25.1992 38.3572 25.1377 38.8874C25.1377 38.9662 25.1377 39.0424 25.1377 39.1158C25.1294 39.3692 25.174 39.6214 25.2681 39.8527Z" fill="white"/>
</mask>
<g mask="url(#mask1_507_3613)">
<path d="M25.2681 39.8527C25.3401 40.0084 25.4467 40.1412 25.578 40.2388C25.6334 40.2794 25.6919 40.3149 25.7526 40.3448C25.8847 40.4071 26.0251 40.4447 26.1683 40.4563C26.2682 40.4644 26.3685 40.4644 26.4684 40.4563C26.5225 40.4563 26.5741 40.4373 26.6258 40.4237C26.7296 40.3893 26.8283 40.338 26.9185 40.2714C27.2476 40.0143 27.507 39.6626 27.6687 39.2545C27.6975 39.1776 27.7214 39.0986 27.74 39.0179C27.9072 38.0499 28.0155 37.5795 28.2467 36.6306C28.6156 35.1215 29.0264 33.6232 29.3338 32.1141C30.0717 28.4869 30.2193 24.6013 30.7727 20.8679C30.4038 20.8679 30.2144 20.8516 29.8257 20.819C29.506 20.7918 29.3338 20.7728 29.0215 20.7429C28.1975 20.6613 27.7916 20.6395 27.0046 20.6287C26.6086 24.3756 26.4143 28.1442 25.9617 31.8776C25.7329 33.7809 25.4944 35.6707 25.2853 37.5714C25.2287 38.0934 25.1992 38.3572 25.1377 38.8874C25.1377 38.9663 25.1377 39.0424 25.1377 39.1158C25.1294 39.3692 25.174 39.6214 25.2681 39.8527Z" fill="#7C807B"/>
</g>
<mask id="mask2_507_3613" style="mask-type:luminance" maskUnits="userSpaceOnUse" x="24" y="25" width="9" height="8">
<path d="M24.0381 29.2047V29.2482C24.0435 29.431 24.0632 29.613 24.0971 29.792C24.1275 29.9667 24.1728 30.1379 24.2324 30.3032C24.3493 30.6466 24.5154 30.9671 24.7243 31.2522C24.9308 31.5347 25.1708 31.7853 25.4376 31.9972C25.9421 32.3932 26.5279 32.6436 27.1421 32.7259C28.4008 32.9187 29.681 32.6237 30.7652 31.8912H30.7873C30.8272 31.8688 30.865 31.8424 30.9004 31.8123C31.1068 31.6549 31.2965 31.4725 31.4661 31.2685C31.6131 31.0875 31.741 30.8886 31.8474 30.6757C31.9452 30.4914 32.0276 30.2975 32.0934 30.0965C32.1229 30.0041 32.1475 29.9089 32.1745 29.8246C32.2036 29.7096 32.225 29.5924 32.2385 29.4739C32.2385 29.4032 32.2385 29.3325 32.2557 29.2645C32.2557 29.1847 32.2557 29.1059 32.2557 29.0279V28.9953C32.2556 28.84 32.2365 28.6855 32.1991 28.5358C32.192 28.4889 32.1821 28.4426 32.1696 28.3971C32.1719 28.3882 32.1719 28.3788 32.1696 28.3699C32.145 28.2584 32.1106 28.1497 32.0761 28.0409C32.0589 27.9865 32.0417 27.9376 32.022 27.8832C32.022 27.8832 32.022 27.8669 32.022 27.8587C31.9851 27.7608 31.9458 27.6657 31.904 27.5678L31.7884 27.3367C31.7761 27.3068 31.7588 27.2823 31.7465 27.2578C31.7343 27.2333 31.6826 27.1518 31.6531 27.1001C31.6369 27.0468 31.6137 26.9964 31.5842 26.9505L31.4071 26.7602C31.3309 26.6759 31.2497 26.5807 31.1956 26.5182L31.1661 26.4856C31.1434 26.4579 31.1157 26.4357 31.0849 26.4203L31.0554 26.404C30.8746 26.2404 30.6793 26.0974 30.4725 25.9771C30.3065 25.8727 30.1339 25.7818 29.956 25.7052C29.4972 25.5153 29.0157 25.4008 28.5269 25.3653C27.3918 25.2535 26.2595 25.611 25.3491 26.3687C25.3293 26.3836 25.3104 26.4 25.2925 26.4176C24.6805 26.9674 24.2627 27.7373 24.1119 28.5929C24.0678 28.7934 24.0431 28.9984 24.0381 29.2047Z" fill="white"/>
</mask>
<g mask="url(#mask2_507_3613)">
<path d="M24.0381 29.2045V29.248C24.0435 29.4308 24.0632 29.6128 24.0971 29.7918C24.1275 29.9665 24.1728 30.1377 24.2324 30.303C24.3493 30.6464 24.5154 30.9668 24.7243 31.252C24.9308 31.5345 25.1708 31.7851 25.4376 31.997C25.9421 32.3929 26.5279 32.6434 27.1421 32.7257C28.4008 32.9185 29.681 32.6235 30.7652 31.8909H30.7873C30.8272 31.8686 30.865 31.8422 30.9004 31.8121C31.1068 31.6547 31.2965 31.4723 31.4661 31.2683C31.6131 31.0872 31.741 30.8884 31.8474 30.6755C31.9452 30.4912 32.0276 30.2973 32.0934 30.0963C32.1229 30.0039 32.1475 29.9087 32.1745 29.8244C32.2036 29.7094 32.225 29.5922 32.2385 29.4737C32.2385 29.403 32.2385 29.3323 32.2557 29.2643C32.2557 29.1845 32.2557 29.1057 32.2557 29.0277V28.9951C32.2491 28.8404 32.2302 28.6866 32.1991 28.5356C32.192 28.4887 32.1821 28.4424 32.1696 28.3969C32.1719 28.388 32.1719 28.3786 32.1696 28.3697C32.145 28.2582 32.1106 28.1495 32.0761 28.0407C32.0589 27.9863 32.0417 27.9374 32.022 27.883C32.022 27.883 32.022 27.8667 32.022 27.8585C31.9851 27.7606 31.9458 27.6655 31.904 27.5676L31.7884 27.3365C31.7761 27.3065 31.7588 27.2821 31.7465 27.2576C31.7343 27.2331 31.6826 27.1516 31.6531 27.0999L31.599 27.0183C31.5375 26.9259 31.4735 26.8443 31.4071 26.76L31.385 26.741C31.3338 26.6771 31.2787 26.6172 31.2202 26.5615C31.1661 26.5044 31.1095 26.45 31.0554 26.4011C30.8746 26.2375 30.6793 26.0944 30.4725 25.9742C30.3065 25.8698 30.1339 25.7789 29.956 25.7023C29.4972 25.5124 29.0157 25.3978 28.5269 25.3624C27.3918 25.2506 26.2595 25.6081 25.3491 26.3657C25.3293 26.3807 25.3104 26.3971 25.2925 26.4147C24.6805 26.9644 24.2627 27.7343 24.1119 28.59C24.0676 28.7913 24.0429 28.9973 24.0381 29.2045Z" fill="#8A8F89"/>
<path d="M27.814 26.4448C27.814 26.4448 28.1781 27.2035 28.1633 27.5107C28.1549 27.6245 28.1666 27.739 28.1977 27.8479C28.2187 27.9239 28.2642 27.9888 28.3256 28.0301C28.3256 28.0301 28.788 27.8751 29.4128 27.7364C29.5717 27.7187 29.7239 27.657 29.8555 27.557C29.9514 27.4917 30.0129 27.4428 30.0129 27.4428L30.0351 27.4292H30.0498C30.0508 27.4238 30.0508 27.4182 30.0498 27.4128C30.0425 26.9356 29.9266 26.468 29.7128 26.0533L29.5874 25.9935L29.43 25.9282H29.4054L29.3267 25.901C28.9288 25.856 28.5288 25.8378 28.1289 25.8466C28.0837 25.8588 28.0393 25.8743 27.996 25.8929L27.9665 25.9065C27.45 26.0995 27.814 26.4448 27.814 26.4448Z" fill="#8A8F89"/>
<path d="M28.2171 28.661C28.2676 28.9296 28.2972 29.2025 28.3056 29.4767C28.2989 29.516 28.3025 29.5566 28.316 29.5937C28.3296 29.6308 28.3524 29.6629 28.3819 29.6861C28.4799 29.7573 28.5906 29.8046 28.7065 29.8247C28.7065 29.8247 29.3215 29.7676 29.6584 29.7812C29.7966 29.7912 29.9348 29.7612 30.0593 29.6942C30.1064 29.6649 30.1488 29.6272 30.1848 29.5827H30.202C30.203 29.5773 30.203 29.5718 30.202 29.5664C30.234 29.4413 30.3422 28.9981 30.1651 28.0709C30.1181 28.0391 30.0687 28.0118 30.0175 27.9893C29.9634 27.973 29.8945 27.954 29.8257 27.9404H29.7962L29.7101 27.9241C29.3299 27.9278 28.9503 27.9586 28.5737 28.0165C28.5429 28.0368 28.5141 28.0604 28.4876 28.0872L28.468 28.1035C28.3878 28.1663 28.3229 28.2501 28.2791 28.3474C28.2353 28.4446 28.214 28.5524 28.2171 28.661Z" fill="#8A8F89"/>
<path d="M30.2535 29.4142C30.2535 29.4631 30.2535 29.5039 30.2535 29.5338C30.2444 29.5726 30.2473 29.6137 30.2615 29.6505C30.2757 29.6874 30.3006 29.7181 30.3322 29.7377C30.4355 29.7958 30.5456 29.8379 30.6593 29.8628C30.995 29.8538 31.3309 29.8665 31.6653 29.9009C31.7407 29.9203 31.8201 29.9066 31.8866 29.8628C31.9136 29.8414 31.9391 29.8178 31.9629 29.7921L32.0613 29.7051C32.0607 29.6997 32.0607 29.6942 32.0613 29.6888C32.1478 29.4657 32.197 29.2271 32.2064 28.9845V28.9519C32.2063 28.7966 32.1872 28.6421 32.1498 28.4924C32.1427 28.4455 32.1328 28.3992 32.1203 28.3537C32.0982 28.2803 32.0736 28.2069 32.0441 28.128L31.9383 28.0682C31.8989 28.0682 31.8571 28.0465 31.8055 28.0383C31.8055 28.0383 31.7883 28.0383 31.7858 28.0383H31.712C31.6957 28.0364 31.6792 28.0364 31.6628 28.0383C31.3726 27.9975 30.433 27.9023 30.433 27.9023C30.4064 27.9094 30.3808 27.9204 30.3568 27.935C30.2761 28.0029 30.2181 28.0986 30.192 28.2069C30.158 28.3672 30.1489 28.5327 30.1649 28.6963C30.1649 28.6963 30.2461 29.1477 30.2535 29.4142Z" fill="#8A8F89"/>
<path d="M25.6267 29.1558C25.6267 29.1558 25.6857 29.8818 25.7324 30.0722C25.746 30.1099 25.7509 30.1508 25.7466 30.1912C25.7423 30.2315 25.729 30.27 25.7078 30.3033C25.641 30.3758 25.5637 30.4355 25.4791 30.48C25.2207 30.5181 24.9657 30.58 24.7166 30.6649C24.6742 30.6858 24.6266 30.69 24.5818 30.6766C24.537 30.6632 24.4977 30.6332 24.4707 30.5915L24.3796 30.5126H24.3673V30.4963C24.1256 29.9862 24.0336 29.4055 24.1042 28.835C24.1257 28.8055 24.1496 28.7782 24.1755 28.7534C24.2054 28.7335 24.2366 28.7162 24.269 28.7017C24.2716 28.7001 24.2745 28.6992 24.2776 28.6992C24.2806 28.6992 24.2836 28.7001 24.2862 28.7017L24.3378 28.6773C24.4829 28.612 25.2897 28.3401 25.2897 28.3401C25.3116 28.3462 25.3324 28.3563 25.3512 28.37H25.366C25.5676 28.5168 25.6267 29.1558 25.6267 29.1558Z" fill="#8A8F89"/>
<path d="M25.5137 26.7575C25.5137 26.7575 25.5727 27.5732 25.6268 27.8179C25.6466 27.9243 25.6887 28.0239 25.7498 28.1089C25.8164 28.1964 25.9006 28.2653 25.9958 28.3101C26.339 28.2866 26.6831 28.2866 27.0263 28.3101C27.2698 28.3197 27.5118 28.3543 27.7495 28.4134C28.0126 28.4868 28.0692 28.4134 28.0692 28.4134H28.0987H28.1184C28.1184 28.4134 28.1184 28.4134 28.1184 28.3835C28.0798 27.6706 27.9378 26.9692 27.6978 26.3061C27.6478 26.2703 27.6016 26.2284 27.5601 26.181C27.5158 26.1348 27.4691 26.075 27.4248 26.0288C27.4248 26.0288 27.4125 26.0288 27.4027 26.0125C27.3848 25.9931 27.364 25.9775 27.3412 25.9662C27.169 25.8683 26.1679 25.9662 26.1679 25.9662C26.1308 25.9773 26.0946 25.9919 26.0597 26.0097L26.0327 26.0233C25.9058 26.1006 25.7944 26.2055 25.7052 26.3317C25.616 26.4579 25.5508 26.6027 25.5137 26.7575Z" fill="#8A8F89"/>
<path d="M25.9049 31.1488C25.9049 31.1488 25.9566 31.8069 25.9812 32.0407C25.985 32.0946 25.9995 32.147 26.0237 32.194C26.048 32.241 26.0813 32.2815 26.1214 32.3126C26.2465 32.4035 26.3845 32.4706 26.5297 32.5111C26.5297 32.5111 27.3487 32.5111 27.6144 32.4812C27.7291 32.4715 27.841 32.4374 27.9439 32.3806C27.995 32.3506 28.0443 32.317 28.0915 32.28L28.1161 32.2664H28.1309C28.1327 32.2593 28.1327 32.2518 28.1309 32.2446C28.3079 31.7454 28.3364 31.1968 28.212 30.6784C28.1924 30.6621 28.126 30.6132 28.0473 30.5452C27.9836 30.491 27.9171 30.4411 27.848 30.3957C27.8393 30.3881 27.8292 30.3826 27.8185 30.3793C27.7906 30.3624 27.7608 30.3496 27.73 30.3413C27.3689 30.3119 27.0059 30.3265 26.6477 30.3848L26.4878 30.4718L26.4485 30.4963C25.8139 30.8633 25.9049 31.1488 25.9049 31.1488Z" fill="#8A8F89"/>
<path d="M28.2197 30.9748C28.2197 30.9748 28.2836 31.6546 28.2762 31.9184C28.2715 31.9731 28.2786 32.0283 28.297 32.0794C28.3153 32.1304 28.3445 32.1759 28.382 32.212C28.4909 32.3007 28.6174 32.3595 28.751 32.3833C28.751 32.3833 29.7815 32.2474 30.0201 32.174C30.1233 32.1387 30.2177 32.0772 30.2956 31.9945C30.3596 31.9292 30.4112 31.8694 30.4112 31.8694L30.4284 31.8531H30.4432C30.4444 31.8468 30.4444 31.8403 30.4432 31.8341C30.5433 31.2776 30.505 30.7016 30.3325 30.1673C30.3128 30.1509 30.2513 30.1047 30.1898 30.0449C30.1469 30.0002 30.1008 29.9593 30.0521 29.9225C30.0465 29.9205 30.0405 29.9205 30.0349 29.9225C30.0157 29.9108 29.9949 29.9026 29.9734 29.8981C29.8111 29.86 28.5788 29.9579 28.5788 29.9579C28.539 29.984 28.5039 30.0181 28.4755 30.0585L28.4533 30.0911C28.1213 30.6268 28.2197 30.9748 28.2197 30.9748Z" fill="#8A8F89"/>
<path d="M25.5706 29.047C25.5706 29.047 25.7329 29.6289 25.787 29.8954C25.8036 30.008 25.8549 30.1107 25.9321 30.1863C26.0257 30.2665 26.1354 30.3206 26.2519 30.344C26.2519 30.344 26.9061 30.3033 27.2579 30.2652C27.4242 30.2438 27.5888 30.2074 27.7498 30.1564C27.8826 30.1156 27.9712 30.0776 27.9712 30.0776H28.0007H28.0228C28.0239 30.0722 28.0239 30.0666 28.0228 30.0613C28.0917 29.9443 28.4434 29.2646 28.1138 28.7235L27.9072 28.6555C27.8285 28.6364 27.735 28.6065 27.6465 28.5821H27.6096C27.5702 28.5821 27.5333 28.5603 27.4989 28.5522C27.2087 28.4869 26.333 28.3917 26.333 28.3917C26.279 28.4012 26.2255 28.4149 26.1732 28.4325H26.1338C25.5017 28.6174 25.5706 29.047 25.5706 29.047Z" fill="#8A8F89"/>
<path d="M30.0668 26.9723C30.084 27.0287 30.1089 27.0819 30.1406 27.13C30.2857 27.3666 30.4633 27.5766 30.667 27.7527C30.7991 27.8016 30.9363 27.8317 31.0753 27.8424C31.2721 27.8778 31.5057 27.9022 31.6754 27.9186H31.8156C31.8604 27.9266 31.9061 27.9266 31.9509 27.9186C31.9927 27.8968 31.8353 27.5923 31.8353 27.5923C31.8353 27.5923 31.7099 27.2388 31.6238 27.0267C31.6076 26.9734 31.5844 26.923 31.5549 26.8771L31.3778 26.6868C31.3016 26.6025 31.2204 26.5073 31.1663 26.4448L31.1368 26.4122C31.1141 26.3845 31.0864 26.3623 31.0556 26.3469L31.0261 26.3306L30.2316 25.8738L30.1087 25.8031C30.1087 25.8031 30.1087 25.8249 30.1087 25.8629C30.1123 25.9109 30.1123 25.9591 30.1087 26.007C30.0685 26.3268 30.0545 26.6498 30.0668 26.9723Z" fill="#8A8F89"/>
<path d="M25.5804 27.7065C25.5859 27.768 25.5859 27.8299 25.5804 27.8914C25.5804 27.8914 25.5804 27.8914 25.5804 27.905C25.5766 27.9969 25.5411 28.0836 25.4811 28.1474C25.4212 28.2111 25.3413 28.247 25.2582 28.2476C25.1423 28.2549 25.0272 28.2722 24.9138 28.2993C24.6949 28.3482 24.3875 28.4488 24.2448 28.4978C24.2089 28.5126 24.1719 28.5235 24.1341 28.5304C24.0997 28.5304 24.2005 28.2585 24.2005 28.2585C24.2005 28.2585 24.3579 27.6929 24.3801 27.6603C24.4022 27.6276 24.5227 27.4101 24.5793 27.2905C24.5825 27.2792 24.5866 27.2683 24.5916 27.2578C24.6018 27.2343 24.616 27.213 24.6334 27.1953C24.8204 27.0077 24.8573 26.8581 25.0811 26.6515C25.1155 26.6189 25.1352 26.6025 25.1721 26.5726L25.1918 26.6134C25.1918 26.6406 25.2237 26.6787 25.2459 26.7303C25.3819 27.0448 25.4938 27.3713 25.5804 27.7065Z" fill="#8A8F89"/>
<path d="M25.4227 30.7138C25.4565 30.7163 25.4896 30.7245 25.5211 30.7383C25.65 30.8061 25.7559 30.9175 25.8236 31.0564C25.8246 31.1479 25.8155 31.2392 25.7966 31.3283C25.7671 31.505 25.7179 31.7389 25.6908 31.8721C25.6842 31.9073 25.6752 31.9418 25.6638 31.9754C25.6441 32.0054 25.4965 31.8504 25.4965 31.8504C25.4965 31.8504 25.1399 31.6437 25.1202 31.6192C25.1005 31.5948 24.9677 31.4507 24.8964 31.38L24.8767 31.3636C24.8624 31.35 24.8507 31.3333 24.8422 31.3147C24.7611 31.1216 24.7119 31.0428 24.6184 30.8008C24.6184 30.7654 24.5987 30.7464 24.584 30.7111L24.6233 30.7274L24.7291 30.7546C24.9609 30.7647 25.1932 30.7511 25.4227 30.7138Z" fill="#8A8F89"/>
<path d="M30.5195 30.5642C30.5205 30.5153 30.528 30.4667 30.5417 30.4201C30.6007 30.2244 30.672 30.1808 30.7311 30.1482C30.8298 30.1143 30.9327 30.0978 31.036 30.0993C31.282 30.0993 31.6387 30.1129 31.7912 30.0993C31.8288 30.0971 31.8666 30.0971 31.9043 30.0993C31.9363 30.0993 31.8477 30.3304 31.8477 30.3304C31.7984 30.4897 31.7392 30.6451 31.6706 30.7954C31.567 30.8817 31.4722 30.9801 31.3878 31.089L31.3706 31.1162C31.3565 31.1377 31.339 31.1561 31.3189 31.1706C31.0975 31.3256 31.0508 31.4615 30.8442 31.6328L30.7606 31.6954C30.7612 31.6827 30.7612 31.67 30.7606 31.6573C30.7536 31.6178 30.7445 31.5788 30.7335 31.5404C30.645 31.2199 30.5735 30.894 30.5195 30.5642Z" fill="#8A8F89"/>
</g>
</g>
</g>
<defs>
<linearGradient id="paint0_linear_507_3613" x1="23.6691" y1="39.8228" x2="29.1738" y2="39.8228" gradientUnits="userSpaceOnUse">
<stop offset="0.06" stop-color="#292928" stop-opacity="0.5"/>
<stop offset="0.3" stop-color="white"/>
<stop offset="0.6" stop-opacity="0.5"/>
<stop offset="0.99" stop-color="white"/>
</linearGradient>
<linearGradient id="paint1_linear_507_3613" x1="29.9483" y1="40.0049" x2="51.9275" y2="40.0049" gradientUnits="userSpaceOnUse">
<stop stop-color="#A52A2A"/>
<stop offset="1" stop-color="#18233E"/>
</linearGradient>
<linearGradient id="paint2_linear_507_3613" x1="23.5899" y1="8.32474" x2="30.0366" y2="8.32474" gradientUnits="userSpaceOnUse">
<stop stop-color="#A52A2A"/>
<stop offset="1" stop-color="#18233E"/>
</linearGradient>
<linearGradient id="paint3_linear_507_3613" x1="0.000470062" y1="35.7306" x2="53.0005" y2="35.7306" gradientUnits="userSpaceOnUse">
<stop stop-color="#A52A2A"/>
<stop offset="1" stop-color="#18233E"/>
</linearGradient>
<linearGradient id="paint4_linear_507_3613" x1="0.892668" y1="40.0049" x2="22.8719" y2="40.0049" gradientUnits="userSpaceOnUse">
<stop stop-color="#A52A2A"/>
<stop offset="1" stop-color="#18233E"/>
</linearGradient>
<clipPath id="clip0_507_3613">
<rect width="53" height="70.6667" fill="white" transform="translate(0 0.395874)"/>
</clipPath>
</defs>
</svg>
