<svg width="100" height="103" viewBox="0 0 100 103" fill="none" xmlns="http://www.w3.org/2000/svg">
<path d="M99.5924 102.964H0.123047V101.102C0.487211 88.0573 5.88678 75.67 15.1741 66.5731C24.4614 57.4761 36.9042 52.3867 49.8577 52.3867C62.8111 52.3867 75.2539 57.4761 84.5412 66.5731C93.8286 75.67 99.2282 88.0573 99.5924 101.102V102.964ZM4.09551 99.0019H95.6199C95.0238 87.1796 89.9424 76.0398 81.4257 67.8845C72.9089 59.7292 61.6078 55.1816 49.8577 55.1816C38.1076 55.1816 26.8065 59.7292 18.2897 67.8845C9.77301 76.0398 4.69158 87.1796 4.09551 99.0019Z" fill="white"/>
<path d="M49.8568 55.7584C44.3549 55.7584 38.9767 54.1269 34.4021 51.0703C29.8275 48.0136 26.262 43.6691 24.1565 38.5861C22.0511 33.5031 21.5002 27.9099 22.5736 22.5138C23.6469 17.1177 26.2963 12.161 30.1867 8.27066C34.077 4.38029 39.0337 1.73091 44.4298 0.657562C49.8259 -0.415789 55.4191 0.135117 60.5021 2.24057C65.5852 4.34602 69.9297 7.91148 72.9863 12.4861C76.0429 17.0607 77.6744 22.4389 77.6744 27.9407C77.6744 35.3185 74.7437 42.394 69.5269 47.6108C64.31 52.8276 57.2345 55.7584 49.8568 55.7584ZM49.8568 4.09702C45.1409 4.09702 40.531 5.49541 36.6099 8.1154C32.6888 10.7354 29.6327 14.4593 27.828 18.8161C26.0234 23.173 25.5512 27.9672 26.4712 32.5924C27.3912 37.2176 29.6621 41.4662 32.9967 44.8008C36.3313 48.1354 40.5798 50.4063 45.2051 51.3263C49.8303 52.2463 54.6245 51.7741 58.9813 49.9695C63.3382 48.1648 67.0621 45.1087 69.6821 41.1876C72.3021 37.2665 73.7005 32.6566 73.7005 27.9407C73.69 21.6239 71.1732 15.5693 66.7028 11.1064C62.2323 6.64338 56.1736 4.13673 49.8568 4.13674V4.09702Z" fill="white"/>
</svg>
